<?xml version="1.0" encoding="utf-8" standalone="no"?>
<!DOCTYPE svg PUBLIC "-//W3C//DTD SVG 1.1//EN"
  "http://www.w3.org/Graphics/SVG/1.1/DTD/svg11.dtd">
<svg xmlns:xlink="http://www.w3.org/1999/xlink" width="612pt" height="468pt" viewBox="0 0 612 468" xmlns="http://www.w3.org/2000/svg" version="1.1">
 <metadata>
  <rdf:RDF xmlns:dc="http://purl.org/dc/elements/1.1/" xmlns:cc="http://creativecommons.org/ns#" xmlns:rdf="http://www.w3.org/1999/02/22-rdf-syntax-ns#">
   <cc:Work>
    <dc:type rdf:resource="http://purl.org/dc/dcmitype/StillImage"/>
    <dc:date>2022-12-03T11:09:16.686805</dc:date>
    <dc:format>image/svg+xml</dc:format>
    <dc:creator>
     <cc:Agent>
      <dc:title>Matplotlib v3.6.2, https://matplotlib.org/</dc:title>
     </cc:Agent>
    </dc:creator>
   </cc:Work>
  </rdf:RDF>
 </metadata>
 <defs>
  <style type="text/css">*{stroke-linejoin: round; stroke-linecap: butt}</style>
 </defs>
 <g id="figure_1">
  <g id="patch_1">
   <path d="M 0 468 
L 612 468 
L 612 0 
L 0 0 
z
" style="fill: #ffffff"/>
  </g>
  <g id="axes_1">
   <g id="patch_2">
    <path d="M 65.81 411.64 
L 601.2 411.64 
L 601.2 10.8 
L 65.81 10.8 
z
" style="fill: #ffffff"/>
   </g>
   <g id="matplotlib.axis_1">
    <g id="xtick_1">
     <g id="line2d_1">
      <path d="M 90.145909 411.64 
L 90.145909 10.8 
" clip-path="url(#p9c657696ed)" style="fill: none; stroke: #b0b0b0; stroke-width: 0.3; stroke-linecap: square"/>
     </g>
     <g id="line2d_2">
      <defs>
       <path id="mc28e8125e0" d="M 0 0 
L 0 3.5 
" style="stroke: #000000; stroke-width: 0.8"/>
      </defs>
      <g>
       <use xlink:href="#mc28e8125e0" x="90.145909" y="411.64" style="stroke: #000000; stroke-width: 0.8"/>
      </g>
     </g>
     <g id="text_1">
      <!-- 5 -->
      <g transform="translate(85.692159 429.277812) scale(0.14 -0.14)">
       <defs>
        <path id="DejaVuSans-35" d="M 691 4666 
L 3169 4666 
L 3169 4134 
L 1269 4134 
L 1269 2991 
Q 1406 3038 1543 3061 
Q 1681 3084 1819 3084 
Q 2600 3084 3056 2656 
Q 3513 2228 3513 1497 
Q 3513 744 3044 326 
Q 2575 -91 1722 -91 
Q 1428 -91 1123 -41 
Q 819 9 494 109 
L 494 744 
Q 775 591 1075 516 
Q 1375 441 1709 441 
Q 2250 441 2565 725 
Q 2881 1009 2881 1497 
Q 2881 1984 2565 2268 
Q 2250 2553 1709 2553 
Q 1456 2553 1204 2497 
Q 953 2441 691 2322 
L 691 4666 
z
" transform="scale(0.015625)"/>
       </defs>
       <use xlink:href="#DejaVuSans-35"/>
      </g>
     </g>
    </g>
    <g id="xtick_2">
     <g id="line2d_3">
      <path d="M 187.489545 411.64 
L 187.489545 10.8 
" clip-path="url(#p9c657696ed)" style="fill: none; stroke: #b0b0b0; stroke-width: 0.3; stroke-linecap: square"/>
     </g>
     <g id="line2d_4">
      <g>
       <use xlink:href="#mc28e8125e0" x="187.489545" y="411.64" style="stroke: #000000; stroke-width: 0.8"/>
      </g>
     </g>
     <g id="text_2">
      <!-- 10 -->
      <g transform="translate(178.582045 429.277812) scale(0.14 -0.14)">
       <defs>
        <path id="DejaVuSans-31" d="M 794 531 
L 1825 531 
L 1825 4091 
L 703 3866 
L 703 4441 
L 1819 4666 
L 2450 4666 
L 2450 531 
L 3481 531 
L 3481 0 
L 794 0 
L 794 531 
z
" transform="scale(0.015625)"/>
        <path id="DejaVuSans-30" d="M 2034 4250 
Q 1547 4250 1301 3770 
Q 1056 3291 1056 2328 
Q 1056 1369 1301 889 
Q 1547 409 2034 409 
Q 2525 409 2770 889 
Q 3016 1369 3016 2328 
Q 3016 3291 2770 3770 
Q 2525 4250 2034 4250 
z
M 2034 4750 
Q 2819 4750 3233 4129 
Q 3647 3509 3647 2328 
Q 3647 1150 3233 529 
Q 2819 -91 2034 -91 
Q 1250 -91 836 529 
Q 422 1150 422 2328 
Q 422 3509 836 4129 
Q 1250 4750 2034 4750 
z
" transform="scale(0.015625)"/>
       </defs>
       <use xlink:href="#DejaVuSans-31"/>
       <use xlink:href="#DejaVuSans-30" x="63.623047"/>
      </g>
     </g>
    </g>
    <g id="xtick_3">
     <g id="line2d_5">
      <path d="M 284.833182 411.64 
L 284.833182 10.8 
" clip-path="url(#p9c657696ed)" style="fill: none; stroke: #b0b0b0; stroke-width: 0.3; stroke-linecap: square"/>
     </g>
     <g id="line2d_6">
      <g>
       <use xlink:href="#mc28e8125e0" x="284.833182" y="411.64" style="stroke: #000000; stroke-width: 0.8"/>
      </g>
     </g>
     <g id="text_3">
      <!-- 15 -->
      <g transform="translate(275.925682 429.277812) scale(0.14 -0.14)">
       <use xlink:href="#DejaVuSans-31"/>
       <use xlink:href="#DejaVuSans-35" x="63.623047"/>
      </g>
     </g>
    </g>
    <g id="xtick_4">
     <g id="line2d_7">
      <path d="M 382.176818 411.64 
L 382.176818 10.8 
" clip-path="url(#p9c657696ed)" style="fill: none; stroke: #b0b0b0; stroke-width: 0.3; stroke-linecap: square"/>
     </g>
     <g id="line2d_8">
      <g>
       <use xlink:href="#mc28e8125e0" x="382.176818" y="411.64" style="stroke: #000000; stroke-width: 0.8"/>
      </g>
     </g>
     <g id="text_4">
      <!-- 20 -->
      <g transform="translate(373.269318 429.277812) scale(0.14 -0.14)">
       <defs>
        <path id="DejaVuSans-32" d="M 1228 531 
L 3431 531 
L 3431 0 
L 469 0 
L 469 531 
Q 828 903 1448 1529 
Q 2069 2156 2228 2338 
Q 2531 2678 2651 2914 
Q 2772 3150 2772 3378 
Q 2772 3750 2511 3984 
Q 2250 4219 1831 4219 
Q 1534 4219 1204 4116 
Q 875 4013 500 3803 
L 500 4441 
Q 881 4594 1212 4672 
Q 1544 4750 1819 4750 
Q 2544 4750 2975 4387 
Q 3406 4025 3406 3419 
Q 3406 3131 3298 2873 
Q 3191 2616 2906 2266 
Q 2828 2175 2409 1742 
Q 1991 1309 1228 531 
z
" transform="scale(0.015625)"/>
       </defs>
       <use xlink:href="#DejaVuSans-32"/>
       <use xlink:href="#DejaVuSans-30" x="63.623047"/>
      </g>
     </g>
    </g>
    <g id="xtick_5">
     <g id="line2d_9">
      <path d="M 479.520455 411.64 
L 479.520455 10.8 
" clip-path="url(#p9c657696ed)" style="fill: none; stroke: #b0b0b0; stroke-width: 0.3; stroke-linecap: square"/>
     </g>
     <g id="line2d_10">
      <g>
       <use xlink:href="#mc28e8125e0" x="479.520455" y="411.64" style="stroke: #000000; stroke-width: 0.8"/>
      </g>
     </g>
     <g id="text_5">
      <!-- 25 -->
      <g transform="translate(470.612955 429.277812) scale(0.14 -0.14)">
       <use xlink:href="#DejaVuSans-32"/>
       <use xlink:href="#DejaVuSans-35" x="63.623047"/>
      </g>
     </g>
    </g>
    <g id="xtick_6">
     <g id="line2d_11">
      <path d="M 576.864091 411.64 
L 576.864091 10.8 
" clip-path="url(#p9c657696ed)" style="fill: none; stroke: #b0b0b0; stroke-width: 0.3; stroke-linecap: square"/>
     </g>
     <g id="line2d_12">
      <g>
       <use xlink:href="#mc28e8125e0" x="576.864091" y="411.64" style="stroke: #000000; stroke-width: 0.8"/>
      </g>
     </g>
     <g id="text_6">
      <!-- 30 -->
      <g transform="translate(567.956591 429.277812) scale(0.14 -0.14)">
       <defs>
        <path id="DejaVuSans-33" d="M 2597 2516 
Q 3050 2419 3304 2112 
Q 3559 1806 3559 1356 
Q 3559 666 3084 287 
Q 2609 -91 1734 -91 
Q 1441 -91 1130 -33 
Q 819 25 488 141 
L 488 750 
Q 750 597 1062 519 
Q 1375 441 1716 441 
Q 2309 441 2620 675 
Q 2931 909 2931 1356 
Q 2931 1769 2642 2001 
Q 2353 2234 1838 2234 
L 1294 2234 
L 1294 2753 
L 1863 2753 
Q 2328 2753 2575 2939 
Q 2822 3125 2822 3475 
Q 2822 3834 2567 4026 
Q 2313 4219 1838 4219 
Q 1578 4219 1281 4162 
Q 984 4106 628 3988 
L 628 4550 
Q 988 4650 1302 4700 
Q 1616 4750 1894 4750 
Q 2613 4750 3031 4423 
Q 3450 4097 3450 3541 
Q 3450 3153 3228 2886 
Q 3006 2619 2597 2516 
z
" transform="scale(0.015625)"/>
       </defs>
       <use xlink:href="#DejaVuSans-33"/>
       <use xlink:href="#DejaVuSans-30" x="63.623047"/>
      </g>
     </g>
    </g>
    <g id="text_7">
     <!-- UAVs -->
     <g transform="translate(305.375937 452.905937) scale(0.22 -0.22)">
      <defs>
       <path id="DejaVuSans-55" d="M 556 4666 
L 1191 4666 
L 1191 1831 
Q 1191 1081 1462 751 
Q 1734 422 2344 422 
Q 2950 422 3222 751 
Q 3494 1081 3494 1831 
L 3494 4666 
L 4128 4666 
L 4128 1753 
Q 4128 841 3676 375 
Q 3225 -91 2344 -91 
Q 1459 -91 1007 375 
Q 556 841 556 1753 
L 556 4666 
z
" transform="scale(0.015625)"/>
       <path id="DejaVuSans-41" d="M 2188 4044 
L 1331 1722 
L 3047 1722 
L 2188 4044 
z
M 1831 4666 
L 2547 4666 
L 4325 0 
L 3669 0 
L 3244 1197 
L 1141 1197 
L 716 0 
L 50 0 
L 1831 4666 
z
" transform="scale(0.015625)"/>
       <path id="DejaVuSans-56" d="M 1831 0 
L 50 4666 
L 709 4666 
L 2188 738 
L 3669 4666 
L 4325 4666 
L 2547 0 
L 1831 0 
z
" transform="scale(0.015625)"/>
       <path id="DejaVuSans-73" d="M 2834 3397 
L 2834 2853 
Q 2591 2978 2328 3040 
Q 2066 3103 1784 3103 
Q 1356 3103 1142 2972 
Q 928 2841 928 2578 
Q 928 2378 1081 2264 
Q 1234 2150 1697 2047 
L 1894 2003 
Q 2506 1872 2764 1633 
Q 3022 1394 3022 966 
Q 3022 478 2636 193 
Q 2250 -91 1575 -91 
Q 1294 -91 989 -36 
Q 684 19 347 128 
L 347 722 
Q 666 556 975 473 
Q 1284 391 1588 391 
Q 1994 391 2212 530 
Q 2431 669 2431 922 
Q 2431 1156 2273 1281 
Q 2116 1406 1581 1522 
L 1381 1569 
Q 847 1681 609 1914 
Q 372 2147 372 2553 
Q 372 3047 722 3315 
Q 1072 3584 1716 3584 
Q 2034 3584 2315 3537 
Q 2597 3491 2834 3397 
z
" transform="scale(0.015625)"/>
      </defs>
      <use xlink:href="#DejaVuSans-55"/>
      <use xlink:href="#DejaVuSans-41" x="73.193359"/>
      <use xlink:href="#DejaVuSans-56" x="135.226562"/>
      <use xlink:href="#DejaVuSans-73" x="203.634766"/>
     </g>
    </g>
   </g>
   <g id="matplotlib.axis_2">
    <g id="ytick_1">
     <g id="line2d_13">
      <path d="M 65.81 410.250163 
L 601.2 410.250163 
" clip-path="url(#p9c657696ed)" style="fill: none; stroke: #b0b0b0; stroke-width: 0.3; stroke-linecap: square"/>
     </g>
     <g id="line2d_14">
      <defs>
       <path id="m4c3d8ceb2c" d="M 0 0 
L -3.5 0 
" style="stroke: #000000; stroke-width: 0.8"/>
      </defs>
      <g>
       <use xlink:href="#m4c3d8ceb2c" x="65.81" y="410.250163" style="stroke: #000000; stroke-width: 0.8"/>
      </g>
     </g>
     <g id="text_8">
      <!-- 1.0 -->
      <g transform="translate(36.545625 415.569069) scale(0.14 -0.14)">
       <defs>
        <path id="DejaVuSans-2e" d="M 684 794 
L 1344 794 
L 1344 0 
L 684 0 
L 684 794 
z
" transform="scale(0.015625)"/>
       </defs>
       <use xlink:href="#DejaVuSans-31"/>
       <use xlink:href="#DejaVuSans-2e" x="63.623047"/>
       <use xlink:href="#DejaVuSans-30" x="95.410156"/>
      </g>
     </g>
    </g>
    <g id="ytick_2">
     <g id="line2d_15">
      <path d="M 65.81 326.877972 
L 601.2 326.877972 
" clip-path="url(#p9c657696ed)" style="fill: none; stroke: #b0b0b0; stroke-width: 0.3; stroke-linecap: square"/>
     </g>
     <g id="line2d_16">
      <g>
       <use xlink:href="#m4c3d8ceb2c" x="65.81" y="326.877972" style="stroke: #000000; stroke-width: 0.8"/>
      </g>
     </g>
     <g id="text_9">
      <!-- 1.5 -->
      <g transform="translate(36.545625 332.196878) scale(0.14 -0.14)">
       <use xlink:href="#DejaVuSans-31"/>
       <use xlink:href="#DejaVuSans-2e" x="63.623047"/>
       <use xlink:href="#DejaVuSans-35" x="95.410156"/>
      </g>
     </g>
    </g>
    <g id="ytick_3">
     <g id="line2d_17">
      <path d="M 65.81 243.505781 
L 601.2 243.505781 
" clip-path="url(#p9c657696ed)" style="fill: none; stroke: #b0b0b0; stroke-width: 0.3; stroke-linecap: square"/>
     </g>
     <g id="line2d_18">
      <g>
       <use xlink:href="#m4c3d8ceb2c" x="65.81" y="243.505781" style="stroke: #000000; stroke-width: 0.8"/>
      </g>
     </g>
     <g id="text_10">
      <!-- 2.0 -->
      <g transform="translate(36.545625 248.824688) scale(0.14 -0.14)">
       <use xlink:href="#DejaVuSans-32"/>
       <use xlink:href="#DejaVuSans-2e" x="63.623047"/>
       <use xlink:href="#DejaVuSans-30" x="95.410156"/>
      </g>
     </g>
    </g>
    <g id="ytick_4">
     <g id="line2d_19">
      <path d="M 65.81 160.133591 
L 601.2 160.133591 
" clip-path="url(#p9c657696ed)" style="fill: none; stroke: #b0b0b0; stroke-width: 0.3; stroke-linecap: square"/>
     </g>
     <g id="line2d_20">
      <g>
       <use xlink:href="#m4c3d8ceb2c" x="65.81" y="160.133591" style="stroke: #000000; stroke-width: 0.8"/>
      </g>
     </g>
     <g id="text_11">
      <!-- 2.5 -->
      <g transform="translate(36.545625 165.452497) scale(0.14 -0.14)">
       <use xlink:href="#DejaVuSans-32"/>
       <use xlink:href="#DejaVuSans-2e" x="63.623047"/>
       <use xlink:href="#DejaVuSans-35" x="95.410156"/>
      </g>
     </g>
    </g>
    <g id="ytick_5">
     <g id="line2d_21">
      <path d="M 65.81 76.7614 
L 601.2 76.7614 
" clip-path="url(#p9c657696ed)" style="fill: none; stroke: #b0b0b0; stroke-width: 0.3; stroke-linecap: square"/>
     </g>
     <g id="line2d_22">
      <g>
       <use xlink:href="#m4c3d8ceb2c" x="65.81" y="76.7614" style="stroke: #000000; stroke-width: 0.8"/>
      </g>
     </g>
     <g id="text_12">
      <!-- 3.0 -->
      <g transform="translate(36.545625 82.080306) scale(0.14 -0.14)">
       <use xlink:href="#DejaVuSans-33"/>
       <use xlink:href="#DejaVuSans-2e" x="63.623047"/>
       <use xlink:href="#DejaVuSans-30" x="95.410156"/>
      </g>
     </g>
    </g>
    <g id="text_13">
     <!-- mean_number_of_relays -->
     <g transform="translate(27.358438 345.53) rotate(-90) scale(0.22 -0.22)">
      <defs>
       <path id="DejaVuSans-6d" d="M 3328 2828 
Q 3544 3216 3844 3400 
Q 4144 3584 4550 3584 
Q 5097 3584 5394 3201 
Q 5691 2819 5691 2113 
L 5691 0 
L 5113 0 
L 5113 2094 
Q 5113 2597 4934 2840 
Q 4756 3084 4391 3084 
Q 3944 3084 3684 2787 
Q 3425 2491 3425 1978 
L 3425 0 
L 2847 0 
L 2847 2094 
Q 2847 2600 2669 2842 
Q 2491 3084 2119 3084 
Q 1678 3084 1418 2786 
Q 1159 2488 1159 1978 
L 1159 0 
L 581 0 
L 581 3500 
L 1159 3500 
L 1159 2956 
Q 1356 3278 1631 3431 
Q 1906 3584 2284 3584 
Q 2666 3584 2933 3390 
Q 3200 3197 3328 2828 
z
" transform="scale(0.015625)"/>
       <path id="DejaVuSans-65" d="M 3597 1894 
L 3597 1613 
L 953 1613 
Q 991 1019 1311 708 
Q 1631 397 2203 397 
Q 2534 397 2845 478 
Q 3156 559 3463 722 
L 3463 178 
Q 3153 47 2828 -22 
Q 2503 -91 2169 -91 
Q 1331 -91 842 396 
Q 353 884 353 1716 
Q 353 2575 817 3079 
Q 1281 3584 2069 3584 
Q 2775 3584 3186 3129 
Q 3597 2675 3597 1894 
z
M 3022 2063 
Q 3016 2534 2758 2815 
Q 2500 3097 2075 3097 
Q 1594 3097 1305 2825 
Q 1016 2553 972 2059 
L 3022 2063 
z
" transform="scale(0.015625)"/>
       <path id="DejaVuSans-61" d="M 2194 1759 
Q 1497 1759 1228 1600 
Q 959 1441 959 1056 
Q 959 750 1161 570 
Q 1363 391 1709 391 
Q 2188 391 2477 730 
Q 2766 1069 2766 1631 
L 2766 1759 
L 2194 1759 
z
M 3341 1997 
L 3341 0 
L 2766 0 
L 2766 531 
Q 2569 213 2275 61 
Q 1981 -91 1556 -91 
Q 1019 -91 701 211 
Q 384 513 384 1019 
Q 384 1609 779 1909 
Q 1175 2209 1959 2209 
L 2766 2209 
L 2766 2266 
Q 2766 2663 2505 2880 
Q 2244 3097 1772 3097 
Q 1472 3097 1187 3025 
Q 903 2953 641 2809 
L 641 3341 
Q 956 3463 1253 3523 
Q 1550 3584 1831 3584 
Q 2591 3584 2966 3190 
Q 3341 2797 3341 1997 
z
" transform="scale(0.015625)"/>
       <path id="DejaVuSans-6e" d="M 3513 2113 
L 3513 0 
L 2938 0 
L 2938 2094 
Q 2938 2591 2744 2837 
Q 2550 3084 2163 3084 
Q 1697 3084 1428 2787 
Q 1159 2491 1159 1978 
L 1159 0 
L 581 0 
L 581 3500 
L 1159 3500 
L 1159 2956 
Q 1366 3272 1645 3428 
Q 1925 3584 2291 3584 
Q 2894 3584 3203 3211 
Q 3513 2838 3513 2113 
z
" transform="scale(0.015625)"/>
       <path id="DejaVuSans-5f" d="M 3263 -1063 
L 3263 -1509 
L -63 -1509 
L -63 -1063 
L 3263 -1063 
z
" transform="scale(0.015625)"/>
       <path id="DejaVuSans-75" d="M 544 1381 
L 544 3500 
L 1119 3500 
L 1119 1403 
Q 1119 906 1312 657 
Q 1506 409 1894 409 
Q 2359 409 2629 706 
Q 2900 1003 2900 1516 
L 2900 3500 
L 3475 3500 
L 3475 0 
L 2900 0 
L 2900 538 
Q 2691 219 2414 64 
Q 2138 -91 1772 -91 
Q 1169 -91 856 284 
Q 544 659 544 1381 
z
M 1991 3584 
L 1991 3584 
z
" transform="scale(0.015625)"/>
       <path id="DejaVuSans-62" d="M 3116 1747 
Q 3116 2381 2855 2742 
Q 2594 3103 2138 3103 
Q 1681 3103 1420 2742 
Q 1159 2381 1159 1747 
Q 1159 1113 1420 752 
Q 1681 391 2138 391 
Q 2594 391 2855 752 
Q 3116 1113 3116 1747 
z
M 1159 2969 
Q 1341 3281 1617 3432 
Q 1894 3584 2278 3584 
Q 2916 3584 3314 3078 
Q 3713 2572 3713 1747 
Q 3713 922 3314 415 
Q 2916 -91 2278 -91 
Q 1894 -91 1617 61 
Q 1341 213 1159 525 
L 1159 0 
L 581 0 
L 581 4863 
L 1159 4863 
L 1159 2969 
z
" transform="scale(0.015625)"/>
       <path id="DejaVuSans-72" d="M 2631 2963 
Q 2534 3019 2420 3045 
Q 2306 3072 2169 3072 
Q 1681 3072 1420 2755 
Q 1159 2438 1159 1844 
L 1159 0 
L 581 0 
L 581 3500 
L 1159 3500 
L 1159 2956 
Q 1341 3275 1631 3429 
Q 1922 3584 2338 3584 
Q 2397 3584 2469 3576 
Q 2541 3569 2628 3553 
L 2631 2963 
z
" transform="scale(0.015625)"/>
       <path id="DejaVuSans-6f" d="M 1959 3097 
Q 1497 3097 1228 2736 
Q 959 2375 959 1747 
Q 959 1119 1226 758 
Q 1494 397 1959 397 
Q 2419 397 2687 759 
Q 2956 1122 2956 1747 
Q 2956 2369 2687 2733 
Q 2419 3097 1959 3097 
z
M 1959 3584 
Q 2709 3584 3137 3096 
Q 3566 2609 3566 1747 
Q 3566 888 3137 398 
Q 2709 -91 1959 -91 
Q 1206 -91 779 398 
Q 353 888 353 1747 
Q 353 2609 779 3096 
Q 1206 3584 1959 3584 
z
" transform="scale(0.015625)"/>
       <path id="DejaVuSans-66" d="M 2375 4863 
L 2375 4384 
L 1825 4384 
Q 1516 4384 1395 4259 
Q 1275 4134 1275 3809 
L 1275 3500 
L 2222 3500 
L 2222 3053 
L 1275 3053 
L 1275 0 
L 697 0 
L 697 3053 
L 147 3053 
L 147 3500 
L 697 3500 
L 697 3744 
Q 697 4328 969 4595 
Q 1241 4863 1831 4863 
L 2375 4863 
z
" transform="scale(0.015625)"/>
       <path id="DejaVuSans-6c" d="M 603 4863 
L 1178 4863 
L 1178 0 
L 603 0 
L 603 4863 
z
" transform="scale(0.015625)"/>
       <path id="DejaVuSans-79" d="M 2059 -325 
Q 1816 -950 1584 -1140 
Q 1353 -1331 966 -1331 
L 506 -1331 
L 506 -850 
L 844 -850 
Q 1081 -850 1212 -737 
Q 1344 -625 1503 -206 
L 1606 56 
L 191 3500 
L 800 3500 
L 1894 763 
L 2988 3500 
L 3597 3500 
L 2059 -325 
z
" transform="scale(0.015625)"/>
      </defs>
      <use xlink:href="#DejaVuSans-6d"/>
      <use xlink:href="#DejaVuSans-65" x="97.412109"/>
      <use xlink:href="#DejaVuSans-61" x="158.935547"/>
      <use xlink:href="#DejaVuSans-6e" x="220.214844"/>
      <use xlink:href="#DejaVuSans-5f" x="283.59375"/>
      <use xlink:href="#DejaVuSans-6e" x="333.59375"/>
      <use xlink:href="#DejaVuSans-75" x="396.972656"/>
      <use xlink:href="#DejaVuSans-6d" x="460.351562"/>
      <use xlink:href="#DejaVuSans-62" x="557.763672"/>
      <use xlink:href="#DejaVuSans-65" x="621.240234"/>
      <use xlink:href="#DejaVuSans-72" x="682.763672"/>
      <use xlink:href="#DejaVuSans-5f" x="723.876953"/>
      <use xlink:href="#DejaVuSans-6f" x="773.876953"/>
      <use xlink:href="#DejaVuSans-66" x="835.058594"/>
      <use xlink:href="#DejaVuSans-5f" x="870.263672"/>
      <use xlink:href="#DejaVuSans-72" x="920.263672"/>
      <use xlink:href="#DejaVuSans-65" x="959.126953"/>
      <use xlink:href="#DejaVuSans-6c" x="1020.650391"/>
      <use xlink:href="#DejaVuSans-61" x="1048.433594"/>
      <use xlink:href="#DejaVuSans-79" x="1109.712891"/>
      <use xlink:href="#DejaVuSans-73" x="1168.892578"/>
     </g>
    </g>
   </g>
   <g id="LineCollection_1">
    <path d="M 90.145909 390.672795 
L 90.145909 368.356466 
" clip-path="url(#p9c657696ed)" style="fill: none; stroke: #1f77b4; stroke-width: 1.5"/>
    <path d="M 187.489545 337.163351 
L 187.489545 318.278515 
" clip-path="url(#p9c657696ed)" style="fill: none; stroke: #1f77b4; stroke-width: 1.5"/>
    <path d="M 284.833182 279.7155 
L 284.833182 255.861407 
" clip-path="url(#p9c657696ed)" style="fill: none; stroke: #1f77b4; stroke-width: 1.5"/>
    <path d="M 382.176818 226.443924 
L 382.176818 194.347092 
" clip-path="url(#p9c657696ed)" style="fill: none; stroke: #1f77b4; stroke-width: 1.5"/>
    <path d="M 479.520455 159.672825 
L 479.520455 125.307437 
" clip-path="url(#p9c657696ed)" style="fill: none; stroke: #1f77b4; stroke-width: 1.5"/>
    <path d="M 576.864091 94.333995 
L 576.864091 58.051565 
" clip-path="url(#p9c657696ed)" style="fill: none; stroke: #1f77b4; stroke-width: 1.5"/>
   </g>
   <g id="LineCollection_2">
    <path d="M 90.145909 390.343785 
L 90.145909 366.419733 
" clip-path="url(#p9c657696ed)" style="fill: none; stroke: #ff7f0e; stroke-width: 1.5"/>
    <path d="M 187.489545 333.655608 
L 187.489545 314.853669 
" clip-path="url(#p9c657696ed)" style="fill: none; stroke: #ff7f0e; stroke-width: 1.5"/>
    <path d="M 284.833182 273.356865 
L 284.833182 246.058036 
" clip-path="url(#p9c657696ed)" style="fill: none; stroke: #ff7f0e; stroke-width: 1.5"/>
    <path d="M 382.176818 209.540644 
L 382.176818 178.95154 
" clip-path="url(#p9c657696ed)" style="fill: none; stroke: #ff7f0e; stroke-width: 1.5"/>
    <path d="M 479.520455 141.394867 
L 479.520455 104.210709 
" clip-path="url(#p9c657696ed)" style="fill: none; stroke: #ff7f0e; stroke-width: 1.5"/>
    <path d="M 576.864091 65.527309 
L 576.864091 29.02 
" clip-path="url(#p9c657696ed)" style="fill: none; stroke: #ff7f0e; stroke-width: 1.5"/>
   </g>
   <g id="LineCollection_3">
    <path d="M 90.145909 390.927578 
L 90.145909 368.814967 
" clip-path="url(#p9c657696ed)" style="fill: none; stroke: #bcbd22; stroke-width: 1.5"/>
    <path d="M 187.489545 339.79324 
L 187.489545 323.367187 
" clip-path="url(#p9c657696ed)" style="fill: none; stroke: #bcbd22; stroke-width: 1.5"/>
    <path d="M 284.833182 292.657858 
L 284.833182 269.714734 
" clip-path="url(#p9c657696ed)" style="fill: none; stroke: #bcbd22; stroke-width: 1.5"/>
    <path d="M 382.176818 250.479352 
L 382.176818 221.870821 
" clip-path="url(#p9c657696ed)" style="fill: none; stroke: #bcbd22; stroke-width: 1.5"/>
    <path d="M 479.520455 207.802656 
L 479.520455 176.549262 
" clip-path="url(#p9c657696ed)" style="fill: none; stroke: #bcbd22; stroke-width: 1.5"/>
    <path d="M 576.864091 168.545568 
L 576.864091 132.85999 
" clip-path="url(#p9c657696ed)" style="fill: none; stroke: #bcbd22; stroke-width: 1.5"/>
   </g>
   <g id="LineCollection_4">
    <path d="M 90.145909 392.831946 
L 90.145909 370.638375 
" clip-path="url(#p9c657696ed)" style="fill: none; stroke: #2ca02c; stroke-width: 1.5"/>
    <path d="M 187.489545 345.685026 
L 187.489545 325.349006 
" clip-path="url(#p9c657696ed)" style="fill: none; stroke: #2ca02c; stroke-width: 1.5"/>
    <path d="M 284.833182 297.051157 
L 284.833182 266.247448 
" clip-path="url(#p9c657696ed)" style="fill: none; stroke: #2ca02c; stroke-width: 1.5"/>
    <path d="M 382.176818 245.806368 
L 382.176818 220.072842 
" clip-path="url(#p9c657696ed)" style="fill: none; stroke: #2ca02c; stroke-width: 1.5"/>
    <path d="M 479.520455 195.835722 
L 479.520455 162.197653 
" clip-path="url(#p9c657696ed)" style="fill: none; stroke: #2ca02c; stroke-width: 1.5"/>
    <path d="M 576.864091 140.031802 
L 576.864091 100.722141 
" clip-path="url(#p9c657696ed)" style="fill: none; stroke: #2ca02c; stroke-width: 1.5"/>
   </g>
   <g id="LineCollection_5">
    <path d="M 90.145909 393.372806 
L 90.145909 372.437918 
" clip-path="url(#p9c657696ed)" style="fill: none; stroke: #17becf; stroke-width: 1.5"/>
    <path d="M 187.489545 346.962585 
L 187.489545 326.053097 
" clip-path="url(#p9c657696ed)" style="fill: none; stroke: #17becf; stroke-width: 1.5"/>
    <path d="M 284.833182 300.819553 
L 284.833182 269.975991 
" clip-path="url(#p9c657696ed)" style="fill: none; stroke: #17becf; stroke-width: 1.5"/>
    <path d="M 382.176818 248.568466 
L 382.176818 223.208293 
" clip-path="url(#p9c657696ed)" style="fill: none; stroke: #17becf; stroke-width: 1.5"/>
    <path d="M 479.520455 202.944412 
L 479.520455 165.974179 
" clip-path="url(#p9c657696ed)" style="fill: none; stroke: #17becf; stroke-width: 1.5"/>
    <path d="M 576.864091 143.338337 
L 576.864091 104.523118 
" clip-path="url(#p9c657696ed)" style="fill: none; stroke: #17becf; stroke-width: 1.5"/>
   </g>
   <g id="LineCollection_6">
    <path d="M 90.145909 393.42 
L 90.145909 372.698332 
" clip-path="url(#p9c657696ed)" style="fill: none; stroke: #d62728; stroke-width: 1.5"/>
    <path d="M 187.489545 347.761624 
L 187.489545 326.149865 
" clip-path="url(#p9c657696ed)" style="fill: none; stroke: #d62728; stroke-width: 1.5"/>
    <path d="M 284.833182 300.798382 
L 284.833182 269.62254 
" clip-path="url(#p9c657696ed)" style="fill: none; stroke: #d62728; stroke-width: 1.5"/>
    <path d="M 382.176818 248.844114 
L 382.176818 224.898012 
" clip-path="url(#p9c657696ed)" style="fill: none; stroke: #d62728; stroke-width: 1.5"/>
    <path d="M 479.520455 201.968057 
L 479.520455 167.072651 
" clip-path="url(#p9c657696ed)" style="fill: none; stroke: #d62728; stroke-width: 1.5"/>
    <path d="M 576.864091 143.586137 
L 576.864091 103.56879 
" clip-path="url(#p9c657696ed)" style="fill: none; stroke: #d62728; stroke-width: 1.5"/>
   </g>
   <g id="line2d_23">
    <path d="M 90.145909 379.51463 
L 187.489545 327.720933 
L 284.833182 267.788454 
L 382.176818 210.395508 
L 479.520455 142.490131 
L 576.864091 76.19278 
" clip-path="url(#p9c657696ed)" style="fill: none; stroke: #1f77b4; stroke-width: 1.5; stroke-linecap: square"/>
    <defs>
     <path id="m564257849f" d="M -2 4 
L 0 2 
L 2 4 
L 4 2 
L 2 0 
L 4 -2 
L 2 -4 
L 0 -2 
L -2 -4 
L -4 -2 
L -2 0 
L -4 2 
z
" style="stroke: #1f77b4; stroke-linejoin: miter"/>
    </defs>
    <g clip-path="url(#p9c657696ed)">
     <use xlink:href="#m564257849f" x="90.145909" y="379.51463" style="fill: #1f77b4; stroke: #1f77b4; stroke-linejoin: miter"/>
     <use xlink:href="#m564257849f" x="187.489545" y="327.720933" style="fill: #1f77b4; stroke: #1f77b4; stroke-linejoin: miter"/>
     <use xlink:href="#m564257849f" x="284.833182" y="267.788454" style="fill: #1f77b4; stroke: #1f77b4; stroke-linejoin: miter"/>
     <use xlink:href="#m564257849f" x="382.176818" y="210.395508" style="fill: #1f77b4; stroke: #1f77b4; stroke-linejoin: miter"/>
     <use xlink:href="#m564257849f" x="479.520455" y="142.490131" style="fill: #1f77b4; stroke: #1f77b4; stroke-linejoin: miter"/>
     <use xlink:href="#m564257849f" x="576.864091" y="76.19278" style="fill: #1f77b4; stroke: #1f77b4; stroke-linejoin: miter"/>
    </g>
   </g>
   <g id="line2d_24">
    <path d="M 90.145909 378.381759 
L 187.489545 324.254638 
L 284.833182 259.707451 
L 382.176818 194.246092 
L 479.520455 122.802788 
L 576.864091 47.273654 
" clip-path="url(#p9c657696ed)" style="fill: none; stroke: #ff7f0e; stroke-width: 1.5; stroke-linecap: square"/>
    <defs>
     <path id="mc8f7a0b886" d="M 0 -4 
L -3.804226 -1.236068 
L -2.351141 3.236068 
L 2.351141 3.236068 
L 3.804226 -1.236068 
z
" style="stroke: #ff7f0e; stroke-linejoin: miter"/>
    </defs>
    <g clip-path="url(#p9c657696ed)">
     <use xlink:href="#mc8f7a0b886" x="90.145909" y="378.381759" style="fill: #ff7f0e; stroke: #ff7f0e; stroke-linejoin: miter"/>
     <use xlink:href="#mc8f7a0b886" x="187.489545" y="324.254638" style="fill: #ff7f0e; stroke: #ff7f0e; stroke-linejoin: miter"/>
     <use xlink:href="#mc8f7a0b886" x="284.833182" y="259.707451" style="fill: #ff7f0e; stroke: #ff7f0e; stroke-linejoin: miter"/>
     <use xlink:href="#mc8f7a0b886" x="382.176818" y="194.246092" style="fill: #ff7f0e; stroke: #ff7f0e; stroke-linejoin: miter"/>
     <use xlink:href="#mc8f7a0b886" x="479.520455" y="122.802788" style="fill: #ff7f0e; stroke: #ff7f0e; stroke-linejoin: miter"/>
     <use xlink:href="#mc8f7a0b886" x="576.864091" y="47.273654" style="fill: #ff7f0e; stroke: #ff7f0e; stroke-linejoin: miter"/>
    </g>
   </g>
   <g id="line2d_25">
    <path d="M 90.145909 379.871272 
L 187.489545 331.580213 
L 284.833182 281.186296 
L 382.176818 236.175086 
L 479.520455 192.175959 
L 576.864091 150.702779 
" clip-path="url(#p9c657696ed)" style="fill: none; stroke: #bcbd22; stroke-width: 1.5; stroke-linecap: square"/>
    <defs>
     <path id="m3f4875baa7" d="M -4 4 
L 4 4 
L 4 -4 
L -4 -4 
z
" style="stroke: #bcbd22; stroke-linejoin: miter"/>
    </defs>
    <g clip-path="url(#p9c657696ed)">
     <use xlink:href="#m3f4875baa7" x="90.145909" y="379.871272" style="fill: #bcbd22; stroke: #bcbd22; stroke-linejoin: miter"/>
     <use xlink:href="#m3f4875baa7" x="187.489545" y="331.580213" style="fill: #bcbd22; stroke: #bcbd22; stroke-linejoin: miter"/>
     <use xlink:href="#m3f4875baa7" x="284.833182" y="281.186296" style="fill: #bcbd22; stroke: #bcbd22; stroke-linejoin: miter"/>
     <use xlink:href="#m3f4875baa7" x="382.176818" y="236.175086" style="fill: #bcbd22; stroke: #bcbd22; stroke-linejoin: miter"/>
     <use xlink:href="#m3f4875baa7" x="479.520455" y="192.175959" style="fill: #bcbd22; stroke: #bcbd22; stroke-linejoin: miter"/>
     <use xlink:href="#m3f4875baa7" x="576.864091" y="150.702779" style="fill: #bcbd22; stroke: #bcbd22; stroke-linejoin: miter"/>
    </g>
   </g>
   <g id="line2d_26">
    <path d="M 90.145909 381.735161 
L 187.489545 335.517016 
L 284.833182 281.649303 
L 382.176818 232.939605 
L 479.520455 179.016688 
L 576.864091 120.376971 
" clip-path="url(#p9c657696ed)" style="fill: none; stroke: #2ca02c; stroke-width: 1.5; stroke-linecap: square"/>
    <defs>
     <path id="m4a6cc4cce0" d="M 0 -4 
L -0.898056 -1.236068 
L -3.804226 -1.236068 
L -1.453085 0.472136 
L -2.351141 3.236068 
L -0 1.527864 
L 2.351141 3.236068 
L 1.453085 0.472136 
L 3.804226 -1.236068 
L 0.898056 -1.236068 
z
" style="stroke: #2ca02c; stroke-linejoin: bevel"/>
    </defs>
    <g clip-path="url(#p9c657696ed)">
     <use xlink:href="#m4a6cc4cce0" x="90.145909" y="381.735161" style="fill: #2ca02c; stroke: #2ca02c; stroke-linejoin: bevel"/>
     <use xlink:href="#m4a6cc4cce0" x="187.489545" y="335.517016" style="fill: #2ca02c; stroke: #2ca02c; stroke-linejoin: bevel"/>
     <use xlink:href="#m4a6cc4cce0" x="284.833182" y="281.649303" style="fill: #2ca02c; stroke: #2ca02c; stroke-linejoin: bevel"/>
     <use xlink:href="#m4a6cc4cce0" x="382.176818" y="232.939605" style="fill: #2ca02c; stroke: #2ca02c; stroke-linejoin: bevel"/>
     <use xlink:href="#m4a6cc4cce0" x="479.520455" y="179.016688" style="fill: #2ca02c; stroke: #2ca02c; stroke-linejoin: bevel"/>
     <use xlink:href="#m4a6cc4cce0" x="576.864091" y="120.376971" style="fill: #2ca02c; stroke: #2ca02c; stroke-linejoin: bevel"/>
    </g>
   </g>
   <g id="line2d_27">
    <path d="M 90.145909 382.905362 
L 187.489545 336.507841 
L 284.833182 285.397772 
L 382.176818 235.88838 
L 479.520455 184.459296 
L 576.864091 123.930727 
" clip-path="url(#p9c657696ed)" style="fill: none; stroke: #17becf; stroke-width: 1.5; stroke-linecap: square"/>
    <defs>
     <path id="m077829e771" d="M 0 -4 
L -4 4 
L 4 4 
z
" style="stroke: #17becf; stroke-linejoin: miter"/>
    </defs>
    <g clip-path="url(#p9c657696ed)">
     <use xlink:href="#m077829e771" x="90.145909" y="382.905362" style="fill: #17becf; stroke: #17becf; stroke-linejoin: miter"/>
     <use xlink:href="#m077829e771" x="187.489545" y="336.507841" style="fill: #17becf; stroke: #17becf; stroke-linejoin: miter"/>
     <use xlink:href="#m077829e771" x="284.833182" y="285.397772" style="fill: #17becf; stroke: #17becf; stroke-linejoin: miter"/>
     <use xlink:href="#m077829e771" x="382.176818" y="235.88838" style="fill: #17becf; stroke: #17becf; stroke-linejoin: miter"/>
     <use xlink:href="#m077829e771" x="479.520455" y="184.459296" style="fill: #17becf; stroke: #17becf; stroke-linejoin: miter"/>
     <use xlink:href="#m077829e771" x="576.864091" y="123.930727" style="fill: #17becf; stroke: #17becf; stroke-linejoin: miter"/>
    </g>
   </g>
   <g id="line2d_28">
    <path d="M 90.145909 383.059166 
L 187.489545 336.955745 
L 284.833182 285.210461 
L 382.176818 236.871063 
L 479.520455 184.520354 
L 576.864091 123.577463 
" clip-path="url(#p9c657696ed)" style="fill: none; stroke: #d62728; stroke-width: 1.5; stroke-linecap: square"/>
    <defs>
     <path id="m3993f2a2a3" d="M -0 5.656854 
L 5.656854 0 
L 0 -5.656854 
L -5.656854 -0 
z
" style="stroke: #d62728; stroke-linejoin: miter"/>
    </defs>
    <g clip-path="url(#p9c657696ed)">
     <use xlink:href="#m3993f2a2a3" x="90.145909" y="383.059166" style="fill: #d62728; stroke: #d62728; stroke-linejoin: miter"/>
     <use xlink:href="#m3993f2a2a3" x="187.489545" y="336.955745" style="fill: #d62728; stroke: #d62728; stroke-linejoin: miter"/>
     <use xlink:href="#m3993f2a2a3" x="284.833182" y="285.210461" style="fill: #d62728; stroke: #d62728; stroke-linejoin: miter"/>
     <use xlink:href="#m3993f2a2a3" x="382.176818" y="236.871063" style="fill: #d62728; stroke: #d62728; stroke-linejoin: miter"/>
     <use xlink:href="#m3993f2a2a3" x="479.520455" y="184.520354" style="fill: #d62728; stroke: #d62728; stroke-linejoin: miter"/>
     <use xlink:href="#m3993f2a2a3" x="576.864091" y="123.577463" style="fill: #d62728; stroke: #d62728; stroke-linejoin: miter"/>
    </g>
   </g>
   <g id="patch_3">
    <path d="M 65.81 411.64 
L 65.81 10.8 
" style="fill: none; stroke: #000000; stroke-width: 0.8; stroke-linejoin: miter; stroke-linecap: square"/>
   </g>
   <g id="patch_4">
    <path d="M 601.2 411.64 
L 601.2 10.8 
" style="fill: none; stroke: #000000; stroke-width: 0.8; stroke-linejoin: miter; stroke-linecap: square"/>
   </g>
   <g id="patch_5">
    <path d="M 65.81 411.64 
L 601.2 411.64 
" style="fill: none; stroke: #000000; stroke-width: 0.8; stroke-linejoin: miter; stroke-linecap: square"/>
   </g>
   <g id="patch_6">
    <path d="M 65.81 10.8 
L 601.2 10.8 
" style="fill: none; stroke: #000000; stroke-width: 0.8; stroke-linejoin: miter; stroke-linecap: square"/>
   </g>
   <g id="legend_1">
    <g id="patch_7">
     <path d="M 79.81 203.49375 
L 194.735 203.49375 
Q 198.735 203.49375 198.735 199.49375 
L 198.735 24.8 
Q 198.735 20.8 194.735 20.8 
L 79.81 20.8 
Q 75.81 20.8 75.81 24.8 
L 75.81 199.49375 
Q 75.81 203.49375 79.81 203.49375 
z
" style="fill: #ffffff; opacity: 0.8; stroke: #cccccc; stroke-linejoin: miter"/>
    </g>
    <g id="LineCollection_7">
     <path d="M 103.81 46.996875 
L 103.81 26.996875 
" style="fill: none; stroke: #1f77b4; stroke-width: 1.5"/>
    </g>
    <g id="line2d_29">
     <path d="M 83.81 36.996875 
L 123.81 36.996875 
" style="fill: none; stroke: #1f77b4; stroke-width: 1.5; stroke-linecap: square"/>
    </g>
    <g id="line2d_30">
     <g>
      <use xlink:href="#m564257849f" x="103.81" y="36.996875" style="fill: #1f77b4; stroke: #1f77b4; stroke-linejoin: miter"/>
     </g>
    </g>
    <g id="text_14">
     <!-- QL -->
     <g transform="translate(125.81 43.996875) scale(0.2 -0.2)">
      <defs>
       <path id="DejaVuSans-51" d="M 2522 4238 
Q 1834 4238 1429 3725 
Q 1025 3213 1025 2328 
Q 1025 1447 1429 934 
Q 1834 422 2522 422 
Q 3209 422 3611 934 
Q 4013 1447 4013 2328 
Q 4013 3213 3611 3725 
Q 3209 4238 2522 4238 
z
M 3406 84 
L 4238 -825 
L 3475 -825 
L 2784 -78 
Q 2681 -84 2626 -87 
Q 2572 -91 2522 -91 
Q 1538 -91 948 567 
Q 359 1225 359 2328 
Q 359 3434 948 4092 
Q 1538 4750 2522 4750 
Q 3503 4750 4090 4092 
Q 4678 3434 4678 2328 
Q 4678 1516 4351 937 
Q 4025 359 3406 84 
z
" transform="scale(0.015625)"/>
       <path id="DejaVuSans-4c" d="M 628 4666 
L 1259 4666 
L 1259 531 
L 3531 531 
L 3531 0 
L 628 0 
L 628 4666 
z
" transform="scale(0.015625)"/>
      </defs>
      <use xlink:href="#DejaVuSans-51"/>
      <use xlink:href="#DejaVuSans-4c" x="78.710938"/>
     </g>
    </g>
    <g id="LineCollection_8">
     <path d="M 103.81 76.353125 
L 103.81 56.353125 
" style="fill: none; stroke: #ff7f0e; stroke-width: 1.5"/>
    </g>
    <g id="line2d_31">
     <path d="M 83.81 66.353125 
L 123.81 66.353125 
" style="fill: none; stroke: #ff7f0e; stroke-width: 1.5; stroke-linecap: square"/>
    </g>
    <g id="line2d_32">
     <g>
      <use xlink:href="#mc8f7a0b886" x="103.81" y="66.353125" style="fill: #ff7f0e; stroke: #ff7f0e; stroke-linejoin: miter"/>
     </g>
    </g>
    <g id="text_15">
     <!-- RND -->
     <g transform="translate(125.81 73.353125) scale(0.2 -0.2)">
      <defs>
       <path id="DejaVuSans-52" d="M 2841 2188 
Q 3044 2119 3236 1894 
Q 3428 1669 3622 1275 
L 4263 0 
L 3584 0 
L 2988 1197 
Q 2756 1666 2539 1819 
Q 2322 1972 1947 1972 
L 1259 1972 
L 1259 0 
L 628 0 
L 628 4666 
L 2053 4666 
Q 2853 4666 3247 4331 
Q 3641 3997 3641 3322 
Q 3641 2881 3436 2590 
Q 3231 2300 2841 2188 
z
M 1259 4147 
L 1259 2491 
L 2053 2491 
Q 2509 2491 2742 2702 
Q 2975 2913 2975 3322 
Q 2975 3731 2742 3939 
Q 2509 4147 2053 4147 
L 1259 4147 
z
" transform="scale(0.015625)"/>
       <path id="DejaVuSans-4e" d="M 628 4666 
L 1478 4666 
L 3547 763 
L 3547 4666 
L 4159 4666 
L 4159 0 
L 3309 0 
L 1241 3903 
L 1241 0 
L 628 0 
L 628 4666 
z
" transform="scale(0.015625)"/>
       <path id="DejaVuSans-44" d="M 1259 4147 
L 1259 519 
L 2022 519 
Q 2988 519 3436 956 
Q 3884 1394 3884 2338 
Q 3884 3275 3436 3711 
Q 2988 4147 2022 4147 
L 1259 4147 
z
M 628 4666 
L 1925 4666 
Q 3281 4666 3915 4102 
Q 4550 3538 4550 2338 
Q 4550 1131 3912 565 
Q 3275 0 1925 0 
L 628 0 
L 628 4666 
z
" transform="scale(0.015625)"/>
      </defs>
      <use xlink:href="#DejaVuSans-52"/>
      <use xlink:href="#DejaVuSans-4e" x="69.482422"/>
      <use xlink:href="#DejaVuSans-44" x="144.287109"/>
     </g>
    </g>
    <g id="LineCollection_9">
     <path d="M 103.81 105.709375 
L 103.81 85.709375 
" style="fill: none; stroke: #bcbd22; stroke-width: 1.5"/>
    </g>
    <g id="line2d_33">
     <path d="M 83.81 95.709375 
L 123.81 95.709375 
" style="fill: none; stroke: #bcbd22; stroke-width: 1.5; stroke-linecap: square"/>
    </g>
    <g id="line2d_34">
     <g>
      <use xlink:href="#m3f4875baa7" x="103.81" y="95.709375" style="fill: #bcbd22; stroke: #bcbd22; stroke-linejoin: miter"/>
     </g>
    </g>
    <g id="text_16">
     <!-- GEO -->
     <g transform="translate(125.81 102.709375) scale(0.2 -0.2)">
      <defs>
       <path id="DejaVuSans-47" d="M 3809 666 
L 3809 1919 
L 2778 1919 
L 2778 2438 
L 4434 2438 
L 4434 434 
Q 4069 175 3628 42 
Q 3188 -91 2688 -91 
Q 1594 -91 976 548 
Q 359 1188 359 2328 
Q 359 3472 976 4111 
Q 1594 4750 2688 4750 
Q 3144 4750 3555 4637 
Q 3966 4525 4313 4306 
L 4313 3634 
Q 3963 3931 3569 4081 
Q 3175 4231 2741 4231 
Q 1884 4231 1454 3753 
Q 1025 3275 1025 2328 
Q 1025 1384 1454 906 
Q 1884 428 2741 428 
Q 3075 428 3337 486 
Q 3600 544 3809 666 
z
" transform="scale(0.015625)"/>
       <path id="DejaVuSans-45" d="M 628 4666 
L 3578 4666 
L 3578 4134 
L 1259 4134 
L 1259 2753 
L 3481 2753 
L 3481 2222 
L 1259 2222 
L 1259 531 
L 3634 531 
L 3634 0 
L 628 0 
L 628 4666 
z
" transform="scale(0.015625)"/>
       <path id="DejaVuSans-4f" d="M 2522 4238 
Q 1834 4238 1429 3725 
Q 1025 3213 1025 2328 
Q 1025 1447 1429 934 
Q 1834 422 2522 422 
Q 3209 422 3611 934 
Q 4013 1447 4013 2328 
Q 4013 3213 3611 3725 
Q 3209 4238 2522 4238 
z
M 2522 4750 
Q 3503 4750 4090 4092 
Q 4678 3434 4678 2328 
Q 4678 1225 4090 567 
Q 3503 -91 2522 -91 
Q 1538 -91 948 565 
Q 359 1222 359 2328 
Q 359 3434 948 4092 
Q 1538 4750 2522 4750 
z
" transform="scale(0.015625)"/>
      </defs>
      <use xlink:href="#DejaVuSans-47"/>
      <use xlink:href="#DejaVuSans-45" x="77.490234"/>
      <use xlink:href="#DejaVuSans-4f" x="140.673828"/>
     </g>
    </g>
    <g id="LineCollection_10">
     <path d="M 103.81 135.065625 
L 103.81 115.065625 
" style="fill: none; stroke: #2ca02c; stroke-width: 1.5"/>
    </g>
    <g id="line2d_35">
     <path d="M 83.81 125.065625 
L 123.81 125.065625 
" style="fill: none; stroke: #2ca02c; stroke-width: 1.5; stroke-linecap: square"/>
    </g>
    <g id="line2d_36">
     <g>
      <use xlink:href="#m4a6cc4cce0" x="103.81" y="125.065625" style="fill: #2ca02c; stroke: #2ca02c; stroke-linejoin: bevel"/>
     </g>
    </g>
    <g id="text_17">
     <!-- QL_DE -->
     <g transform="translate(125.81 132.065625) scale(0.2 -0.2)">
      <use xlink:href="#DejaVuSans-51"/>
      <use xlink:href="#DejaVuSans-4c" x="78.710938"/>
      <use xlink:href="#DejaVuSans-5f" x="134.423828"/>
      <use xlink:href="#DejaVuSans-44" x="184.423828"/>
      <use xlink:href="#DejaVuSans-45" x="261.425781"/>
     </g>
    </g>
    <g id="LineCollection_11">
     <path d="M 103.81 164.978125 
L 103.81 144.978125 
" style="fill: none; stroke: #17becf; stroke-width: 1.5"/>
    </g>
    <g id="line2d_37">
     <path d="M 83.81 154.978125 
L 123.81 154.978125 
" style="fill: none; stroke: #17becf; stroke-width: 1.5; stroke-linecap: square"/>
    </g>
    <g id="line2d_38">
     <g>
      <use xlink:href="#m077829e771" x="103.81" y="154.978125" style="fill: #17becf; stroke: #17becf; stroke-linejoin: miter"/>
     </g>
    </g>
    <g id="text_18">
     <!-- QL2 -->
     <g transform="translate(125.81 161.978125) scale(0.2 -0.2)">
      <use xlink:href="#DejaVuSans-51"/>
      <use xlink:href="#DejaVuSans-4c" x="78.710938"/>
      <use xlink:href="#DejaVuSans-32" x="134.423828"/>
     </g>
    </g>
    <g id="LineCollection_12">
     <path d="M 103.81 194.334375 
L 103.81 174.334375 
" style="fill: none; stroke: #d62728; stroke-width: 1.5"/>
    </g>
    <g id="line2d_39">
     <path d="M 83.81 184.334375 
L 123.81 184.334375 
" style="fill: none; stroke: #d62728; stroke-width: 1.5; stroke-linecap: square"/>
    </g>
    <g id="line2d_40">
     <g>
      <use xlink:href="#m3993f2a2a3" x="103.81" y="184.334375" style="fill: #d62728; stroke: #d62728; stroke-linejoin: miter"/>
     </g>
    </g>
    <g id="text_19">
     <!-- QL3 -->
     <g transform="translate(125.81 191.334375) scale(0.2 -0.2)">
      <use xlink:href="#DejaVuSans-51"/>
      <use xlink:href="#DejaVuSans-4c" x="78.710938"/>
      <use xlink:href="#DejaVuSans-33" x="134.423828"/>
     </g>
    </g>
   </g>
  </g>
 </g>
 <defs>
  <clipPath id="p9c657696ed">
   <rect x="65.81" y="10.8" width="535.39" height="400.84"/>
  </clipPath>
 </defs>
</svg>
