<?xml version="1.0" encoding="utf-8" standalone="no"?>
<!DOCTYPE svg PUBLIC "-//W3C//DTD SVG 1.1//EN"
  "http://www.w3.org/Graphics/SVG/1.1/DTD/svg11.dtd">
<svg xmlns:xlink="http://www.w3.org/1999/xlink" width="612pt" height="468pt" viewBox="0 0 612 468" xmlns="http://www.w3.org/2000/svg" version="1.1">
 <metadata>
  <rdf:RDF xmlns:dc="http://purl.org/dc/elements/1.1/" xmlns:cc="http://creativecommons.org/ns#" xmlns:rdf="http://www.w3.org/1999/02/22-rdf-syntax-ns#">
   <cc:Work>
    <dc:type rdf:resource="http://purl.org/dc/dcmitype/StillImage"/>
    <dc:date>2022-12-03T11:09:15.809109</dc:date>
    <dc:format>image/svg+xml</dc:format>
    <dc:creator>
     <cc:Agent>
      <dc:title>Matplotlib v3.6.2, https://matplotlib.org/</dc:title>
     </cc:Agent>
    </dc:creator>
   </cc:Work>
  </rdf:RDF>
 </metadata>
 <defs>
  <style type="text/css">*{stroke-linejoin: round; stroke-linecap: butt}</style>
 </defs>
 <g id="figure_1">
  <g id="patch_1">
   <path d="M 0 468 
L 612 468 
L 612 0 
L 0 0 
z
" style="fill: #ffffff"/>
  </g>
  <g id="axes_1">
   <g id="patch_2">
    <path d="M 70.13 411.64 
L 601.2 411.64 
L 601.2 10.8 
L 70.13 10.8 
z
" style="fill: #ffffff"/>
   </g>
   <g id="matplotlib.axis_1">
    <g id="xtick_1">
     <g id="line2d_1">
      <path d="M 94.269545 411.64 
L 94.269545 10.8 
" clip-path="url(#p5178688f30)" style="fill: none; stroke: #b0b0b0; stroke-width: 0.3; stroke-linecap: square"/>
     </g>
     <g id="line2d_2">
      <defs>
       <path id="ma64f564030" d="M 0 0 
L 0 3.5 
" style="stroke: #000000; stroke-width: 0.8"/>
      </defs>
      <g>
       <use xlink:href="#ma64f564030" x="94.269545" y="411.64" style="stroke: #000000; stroke-width: 0.8"/>
      </g>
     </g>
     <g id="text_1">
      <!-- 5 -->
      <g transform="translate(89.815795 429.277812) scale(0.14 -0.14)">
       <defs>
        <path id="DejaVuSans-35" d="M 691 4666 
L 3169 4666 
L 3169 4134 
L 1269 4134 
L 1269 2991 
Q 1406 3038 1543 3061 
Q 1681 3084 1819 3084 
Q 2600 3084 3056 2656 
Q 3513 2228 3513 1497 
Q 3513 744 3044 326 
Q 2575 -91 1722 -91 
Q 1428 -91 1123 -41 
Q 819 9 494 109 
L 494 744 
Q 775 591 1075 516 
Q 1375 441 1709 441 
Q 2250 441 2565 725 
Q 2881 1009 2881 1497 
Q 2881 1984 2565 2268 
Q 2250 2553 1709 2553 
Q 1456 2553 1204 2497 
Q 953 2441 691 2322 
L 691 4666 
z
" transform="scale(0.015625)"/>
       </defs>
       <use xlink:href="#DejaVuSans-35"/>
      </g>
     </g>
    </g>
    <g id="xtick_2">
     <g id="line2d_3">
      <path d="M 190.827727 411.64 
L 190.827727 10.8 
" clip-path="url(#p5178688f30)" style="fill: none; stroke: #b0b0b0; stroke-width: 0.3; stroke-linecap: square"/>
     </g>
     <g id="line2d_4">
      <g>
       <use xlink:href="#ma64f564030" x="190.827727" y="411.64" style="stroke: #000000; stroke-width: 0.8"/>
      </g>
     </g>
     <g id="text_2">
      <!-- 10 -->
      <g transform="translate(181.920227 429.277812) scale(0.14 -0.14)">
       <defs>
        <path id="DejaVuSans-31" d="M 794 531 
L 1825 531 
L 1825 4091 
L 703 3866 
L 703 4441 
L 1819 4666 
L 2450 4666 
L 2450 531 
L 3481 531 
L 3481 0 
L 794 0 
L 794 531 
z
" transform="scale(0.015625)"/>
        <path id="DejaVuSans-30" d="M 2034 4250 
Q 1547 4250 1301 3770 
Q 1056 3291 1056 2328 
Q 1056 1369 1301 889 
Q 1547 409 2034 409 
Q 2525 409 2770 889 
Q 3016 1369 3016 2328 
Q 3016 3291 2770 3770 
Q 2525 4250 2034 4250 
z
M 2034 4750 
Q 2819 4750 3233 4129 
Q 3647 3509 3647 2328 
Q 3647 1150 3233 529 
Q 2819 -91 2034 -91 
Q 1250 -91 836 529 
Q 422 1150 422 2328 
Q 422 3509 836 4129 
Q 1250 4750 2034 4750 
z
" transform="scale(0.015625)"/>
       </defs>
       <use xlink:href="#DejaVuSans-31"/>
       <use xlink:href="#DejaVuSans-30" x="63.623047"/>
      </g>
     </g>
    </g>
    <g id="xtick_3">
     <g id="line2d_5">
      <path d="M 287.385909 411.64 
L 287.385909 10.8 
" clip-path="url(#p5178688f30)" style="fill: none; stroke: #b0b0b0; stroke-width: 0.3; stroke-linecap: square"/>
     </g>
     <g id="line2d_6">
      <g>
       <use xlink:href="#ma64f564030" x="287.385909" y="411.64" style="stroke: #000000; stroke-width: 0.8"/>
      </g>
     </g>
     <g id="text_3">
      <!-- 15 -->
      <g transform="translate(278.478409 429.277812) scale(0.14 -0.14)">
       <use xlink:href="#DejaVuSans-31"/>
       <use xlink:href="#DejaVuSans-35" x="63.623047"/>
      </g>
     </g>
    </g>
    <g id="xtick_4">
     <g id="line2d_7">
      <path d="M 383.944091 411.64 
L 383.944091 10.8 
" clip-path="url(#p5178688f30)" style="fill: none; stroke: #b0b0b0; stroke-width: 0.3; stroke-linecap: square"/>
     </g>
     <g id="line2d_8">
      <g>
       <use xlink:href="#ma64f564030" x="383.944091" y="411.64" style="stroke: #000000; stroke-width: 0.8"/>
      </g>
     </g>
     <g id="text_4">
      <!-- 20 -->
      <g transform="translate(375.036591 429.277812) scale(0.14 -0.14)">
       <defs>
        <path id="DejaVuSans-32" d="M 1228 531 
L 3431 531 
L 3431 0 
L 469 0 
L 469 531 
Q 828 903 1448 1529 
Q 2069 2156 2228 2338 
Q 2531 2678 2651 2914 
Q 2772 3150 2772 3378 
Q 2772 3750 2511 3984 
Q 2250 4219 1831 4219 
Q 1534 4219 1204 4116 
Q 875 4013 500 3803 
L 500 4441 
Q 881 4594 1212 4672 
Q 1544 4750 1819 4750 
Q 2544 4750 2975 4387 
Q 3406 4025 3406 3419 
Q 3406 3131 3298 2873 
Q 3191 2616 2906 2266 
Q 2828 2175 2409 1742 
Q 1991 1309 1228 531 
z
" transform="scale(0.015625)"/>
       </defs>
       <use xlink:href="#DejaVuSans-32"/>
       <use xlink:href="#DejaVuSans-30" x="63.623047"/>
      </g>
     </g>
    </g>
    <g id="xtick_5">
     <g id="line2d_9">
      <path d="M 480.502273 411.64 
L 480.502273 10.8 
" clip-path="url(#p5178688f30)" style="fill: none; stroke: #b0b0b0; stroke-width: 0.3; stroke-linecap: square"/>
     </g>
     <g id="line2d_10">
      <g>
       <use xlink:href="#ma64f564030" x="480.502273" y="411.64" style="stroke: #000000; stroke-width: 0.8"/>
      </g>
     </g>
     <g id="text_5">
      <!-- 25 -->
      <g transform="translate(471.594773 429.277812) scale(0.14 -0.14)">
       <use xlink:href="#DejaVuSans-32"/>
       <use xlink:href="#DejaVuSans-35" x="63.623047"/>
      </g>
     </g>
    </g>
    <g id="xtick_6">
     <g id="line2d_11">
      <path d="M 577.060455 411.64 
L 577.060455 10.8 
" clip-path="url(#p5178688f30)" style="fill: none; stroke: #b0b0b0; stroke-width: 0.3; stroke-linecap: square"/>
     </g>
     <g id="line2d_12">
      <g>
       <use xlink:href="#ma64f564030" x="577.060455" y="411.64" style="stroke: #000000; stroke-width: 0.8"/>
      </g>
     </g>
     <g id="text_6">
      <!-- 30 -->
      <g transform="translate(568.152955 429.277812) scale(0.14 -0.14)">
       <defs>
        <path id="DejaVuSans-33" d="M 2597 2516 
Q 3050 2419 3304 2112 
Q 3559 1806 3559 1356 
Q 3559 666 3084 287 
Q 2609 -91 1734 -91 
Q 1441 -91 1130 -33 
Q 819 25 488 141 
L 488 750 
Q 750 597 1062 519 
Q 1375 441 1716 441 
Q 2309 441 2620 675 
Q 2931 909 2931 1356 
Q 2931 1769 2642 2001 
Q 2353 2234 1838 2234 
L 1294 2234 
L 1294 2753 
L 1863 2753 
Q 2328 2753 2575 2939 
Q 2822 3125 2822 3475 
Q 2822 3834 2567 4026 
Q 2313 4219 1838 4219 
Q 1578 4219 1281 4162 
Q 984 4106 628 3988 
L 628 4550 
Q 988 4650 1302 4700 
Q 1616 4750 1894 4750 
Q 2613 4750 3031 4423 
Q 3450 4097 3450 3541 
Q 3450 3153 3228 2886 
Q 3006 2619 2597 2516 
z
" transform="scale(0.015625)"/>
       </defs>
       <use xlink:href="#DejaVuSans-33"/>
       <use xlink:href="#DejaVuSans-30" x="63.623047"/>
      </g>
     </g>
    </g>
    <g id="text_7">
     <!-- UAVs -->
     <g transform="translate(307.535937 452.905937) scale(0.22 -0.22)">
      <defs>
       <path id="DejaVuSans-55" d="M 556 4666 
L 1191 4666 
L 1191 1831 
Q 1191 1081 1462 751 
Q 1734 422 2344 422 
Q 2950 422 3222 751 
Q 3494 1081 3494 1831 
L 3494 4666 
L 4128 4666 
L 4128 1753 
Q 4128 841 3676 375 
Q 3225 -91 2344 -91 
Q 1459 -91 1007 375 
Q 556 841 556 1753 
L 556 4666 
z
" transform="scale(0.015625)"/>
       <path id="DejaVuSans-41" d="M 2188 4044 
L 1331 1722 
L 3047 1722 
L 2188 4044 
z
M 1831 4666 
L 2547 4666 
L 4325 0 
L 3669 0 
L 3244 1197 
L 1141 1197 
L 716 0 
L 50 0 
L 1831 4666 
z
" transform="scale(0.015625)"/>
       <path id="DejaVuSans-56" d="M 1831 0 
L 50 4666 
L 709 4666 
L 2188 738 
L 3669 4666 
L 4325 4666 
L 2547 0 
L 1831 0 
z
" transform="scale(0.015625)"/>
       <path id="DejaVuSans-73" d="M 2834 3397 
L 2834 2853 
Q 2591 2978 2328 3040 
Q 2066 3103 1784 3103 
Q 1356 3103 1142 2972 
Q 928 2841 928 2578 
Q 928 2378 1081 2264 
Q 1234 2150 1697 2047 
L 1894 2003 
Q 2506 1872 2764 1633 
Q 3022 1394 3022 966 
Q 3022 478 2636 193 
Q 2250 -91 1575 -91 
Q 1294 -91 989 -36 
Q 684 19 347 128 
L 347 722 
Q 666 556 975 473 
Q 1284 391 1588 391 
Q 1994 391 2212 530 
Q 2431 669 2431 922 
Q 2431 1156 2273 1281 
Q 2116 1406 1581 1522 
L 1381 1569 
Q 847 1681 609 1914 
Q 372 2147 372 2553 
Q 372 3047 722 3315 
Q 1072 3584 1716 3584 
Q 2034 3584 2315 3537 
Q 2597 3491 2834 3397 
z
" transform="scale(0.015625)"/>
      </defs>
      <use xlink:href="#DejaVuSans-55"/>
      <use xlink:href="#DejaVuSans-41" x="73.193359"/>
      <use xlink:href="#DejaVuSans-56" x="135.226562"/>
      <use xlink:href="#DejaVuSans-73" x="203.634766"/>
     </g>
    </g>
   </g>
   <g id="matplotlib.axis_2">
    <g id="ytick_1">
     <g id="line2d_13">
      <path d="M 70.13 388.107843 
L 601.2 388.107843 
" clip-path="url(#p5178688f30)" style="fill: none; stroke: #b0b0b0; stroke-width: 0.3; stroke-linecap: square"/>
     </g>
     <g id="line2d_14">
      <defs>
       <path id="m8e18ca86d0" d="M 0 0 
L -3.5 0 
" style="stroke: #000000; stroke-width: 0.8"/>
      </defs>
      <g>
       <use xlink:href="#m8e18ca86d0" x="70.13" y="388.107843" style="stroke: #000000; stroke-width: 0.8"/>
      </g>
     </g>
     <g id="text_8">
      <!-- 110 -->
      <g transform="translate(36.4075 393.426749) scale(0.14 -0.14)">
       <use xlink:href="#DejaVuSans-31"/>
       <use xlink:href="#DejaVuSans-31" x="63.623047"/>
       <use xlink:href="#DejaVuSans-30" x="127.246094"/>
      </g>
     </g>
    </g>
    <g id="ytick_2">
     <g id="line2d_15">
      <path d="M 70.13 331.474614 
L 601.2 331.474614 
" clip-path="url(#p5178688f30)" style="fill: none; stroke: #b0b0b0; stroke-width: 0.3; stroke-linecap: square"/>
     </g>
     <g id="line2d_16">
      <g>
       <use xlink:href="#m8e18ca86d0" x="70.13" y="331.474614" style="stroke: #000000; stroke-width: 0.8"/>
      </g>
     </g>
     <g id="text_9">
      <!-- 120 -->
      <g transform="translate(36.4075 336.793521) scale(0.14 -0.14)">
       <use xlink:href="#DejaVuSans-31"/>
       <use xlink:href="#DejaVuSans-32" x="63.623047"/>
       <use xlink:href="#DejaVuSans-30" x="127.246094"/>
      </g>
     </g>
    </g>
    <g id="ytick_3">
     <g id="line2d_17">
      <path d="M 70.13 274.841386 
L 601.2 274.841386 
" clip-path="url(#p5178688f30)" style="fill: none; stroke: #b0b0b0; stroke-width: 0.3; stroke-linecap: square"/>
     </g>
     <g id="line2d_18">
      <g>
       <use xlink:href="#m8e18ca86d0" x="70.13" y="274.841386" style="stroke: #000000; stroke-width: 0.8"/>
      </g>
     </g>
     <g id="text_10">
      <!-- 130 -->
      <g transform="translate(36.4075 280.160292) scale(0.14 -0.14)">
       <use xlink:href="#DejaVuSans-31"/>
       <use xlink:href="#DejaVuSans-33" x="63.623047"/>
       <use xlink:href="#DejaVuSans-30" x="127.246094"/>
      </g>
     </g>
    </g>
    <g id="ytick_4">
     <g id="line2d_19">
      <path d="M 70.13 218.208158 
L 601.2 218.208158 
" clip-path="url(#p5178688f30)" style="fill: none; stroke: #b0b0b0; stroke-width: 0.3; stroke-linecap: square"/>
     </g>
     <g id="line2d_20">
      <g>
       <use xlink:href="#m8e18ca86d0" x="70.13" y="218.208158" style="stroke: #000000; stroke-width: 0.8"/>
      </g>
     </g>
     <g id="text_11">
      <!-- 140 -->
      <g transform="translate(36.4075 223.527064) scale(0.14 -0.14)">
       <defs>
        <path id="DejaVuSans-34" d="M 2419 4116 
L 825 1625 
L 2419 1625 
L 2419 4116 
z
M 2253 4666 
L 3047 4666 
L 3047 1625 
L 3713 1625 
L 3713 1100 
L 3047 1100 
L 3047 0 
L 2419 0 
L 2419 1100 
L 313 1100 
L 313 1709 
L 2253 4666 
z
" transform="scale(0.015625)"/>
       </defs>
       <use xlink:href="#DejaVuSans-31"/>
       <use xlink:href="#DejaVuSans-34" x="63.623047"/>
       <use xlink:href="#DejaVuSans-30" x="127.246094"/>
      </g>
     </g>
    </g>
    <g id="ytick_5">
     <g id="line2d_21">
      <path d="M 70.13 161.574929 
L 601.2 161.574929 
" clip-path="url(#p5178688f30)" style="fill: none; stroke: #b0b0b0; stroke-width: 0.3; stroke-linecap: square"/>
     </g>
     <g id="line2d_22">
      <g>
       <use xlink:href="#m8e18ca86d0" x="70.13" y="161.574929" style="stroke: #000000; stroke-width: 0.8"/>
      </g>
     </g>
     <g id="text_12">
      <!-- 150 -->
      <g transform="translate(36.4075 166.893835) scale(0.14 -0.14)">
       <use xlink:href="#DejaVuSans-31"/>
       <use xlink:href="#DejaVuSans-35" x="63.623047"/>
       <use xlink:href="#DejaVuSans-30" x="127.246094"/>
      </g>
     </g>
    </g>
    <g id="ytick_6">
     <g id="line2d_23">
      <path d="M 70.13 104.941701 
L 601.2 104.941701 
" clip-path="url(#p5178688f30)" style="fill: none; stroke: #b0b0b0; stroke-width: 0.3; stroke-linecap: square"/>
     </g>
     <g id="line2d_24">
      <g>
       <use xlink:href="#m8e18ca86d0" x="70.13" y="104.941701" style="stroke: #000000; stroke-width: 0.8"/>
      </g>
     </g>
     <g id="text_13">
      <!-- 160 -->
      <g transform="translate(36.4075 110.260607) scale(0.14 -0.14)">
       <defs>
        <path id="DejaVuSans-36" d="M 2113 2584 
Q 1688 2584 1439 2293 
Q 1191 2003 1191 1497 
Q 1191 994 1439 701 
Q 1688 409 2113 409 
Q 2538 409 2786 701 
Q 3034 994 3034 1497 
Q 3034 2003 2786 2293 
Q 2538 2584 2113 2584 
z
M 3366 4563 
L 3366 3988 
Q 3128 4100 2886 4159 
Q 2644 4219 2406 4219 
Q 1781 4219 1451 3797 
Q 1122 3375 1075 2522 
Q 1259 2794 1537 2939 
Q 1816 3084 2150 3084 
Q 2853 3084 3261 2657 
Q 3669 2231 3669 1497 
Q 3669 778 3244 343 
Q 2819 -91 2113 -91 
Q 1303 -91 875 529 
Q 447 1150 447 2328 
Q 447 3434 972 4092 
Q 1497 4750 2381 4750 
Q 2619 4750 2861 4703 
Q 3103 4656 3366 4563 
z
" transform="scale(0.015625)"/>
       </defs>
       <use xlink:href="#DejaVuSans-31"/>
       <use xlink:href="#DejaVuSans-36" x="63.623047"/>
       <use xlink:href="#DejaVuSans-30" x="127.246094"/>
      </g>
     </g>
    </g>
    <g id="ytick_7">
     <g id="line2d_25">
      <path d="M 70.13 48.308472 
L 601.2 48.308472 
" clip-path="url(#p5178688f30)" style="fill: none; stroke: #b0b0b0; stroke-width: 0.3; stroke-linecap: square"/>
     </g>
     <g id="line2d_26">
      <g>
       <use xlink:href="#m8e18ca86d0" x="70.13" y="48.308472" style="stroke: #000000; stroke-width: 0.8"/>
      </g>
     </g>
     <g id="text_14">
      <!-- 170 -->
      <g transform="translate(36.4075 53.627378) scale(0.14 -0.14)">
       <defs>
        <path id="DejaVuSans-37" d="M 525 4666 
L 3525 4666 
L 3525 4397 
L 1831 0 
L 1172 0 
L 2766 4134 
L 525 4134 
L 525 4666 
z
" transform="scale(0.015625)"/>
       </defs>
       <use xlink:href="#DejaVuSans-31"/>
       <use xlink:href="#DejaVuSans-37" x="63.623047"/>
       <use xlink:href="#DejaVuSans-30" x="127.246094"/>
      </g>
     </g>
    </g>
    <g id="text_15">
     <!-- packet_mean_delivery_time -->
     <g transform="translate(27.220313 364.76625) rotate(-90) scale(0.22 -0.22)">
      <defs>
       <path id="DejaVuSans-70" d="M 1159 525 
L 1159 -1331 
L 581 -1331 
L 581 3500 
L 1159 3500 
L 1159 2969 
Q 1341 3281 1617 3432 
Q 1894 3584 2278 3584 
Q 2916 3584 3314 3078 
Q 3713 2572 3713 1747 
Q 3713 922 3314 415 
Q 2916 -91 2278 -91 
Q 1894 -91 1617 61 
Q 1341 213 1159 525 
z
M 3116 1747 
Q 3116 2381 2855 2742 
Q 2594 3103 2138 3103 
Q 1681 3103 1420 2742 
Q 1159 2381 1159 1747 
Q 1159 1113 1420 752 
Q 1681 391 2138 391 
Q 2594 391 2855 752 
Q 3116 1113 3116 1747 
z
" transform="scale(0.015625)"/>
       <path id="DejaVuSans-61" d="M 2194 1759 
Q 1497 1759 1228 1600 
Q 959 1441 959 1056 
Q 959 750 1161 570 
Q 1363 391 1709 391 
Q 2188 391 2477 730 
Q 2766 1069 2766 1631 
L 2766 1759 
L 2194 1759 
z
M 3341 1997 
L 3341 0 
L 2766 0 
L 2766 531 
Q 2569 213 2275 61 
Q 1981 -91 1556 -91 
Q 1019 -91 701 211 
Q 384 513 384 1019 
Q 384 1609 779 1909 
Q 1175 2209 1959 2209 
L 2766 2209 
L 2766 2266 
Q 2766 2663 2505 2880 
Q 2244 3097 1772 3097 
Q 1472 3097 1187 3025 
Q 903 2953 641 2809 
L 641 3341 
Q 956 3463 1253 3523 
Q 1550 3584 1831 3584 
Q 2591 3584 2966 3190 
Q 3341 2797 3341 1997 
z
" transform="scale(0.015625)"/>
       <path id="DejaVuSans-63" d="M 3122 3366 
L 3122 2828 
Q 2878 2963 2633 3030 
Q 2388 3097 2138 3097 
Q 1578 3097 1268 2742 
Q 959 2388 959 1747 
Q 959 1106 1268 751 
Q 1578 397 2138 397 
Q 2388 397 2633 464 
Q 2878 531 3122 666 
L 3122 134 
Q 2881 22 2623 -34 
Q 2366 -91 2075 -91 
Q 1284 -91 818 406 
Q 353 903 353 1747 
Q 353 2603 823 3093 
Q 1294 3584 2113 3584 
Q 2378 3584 2631 3529 
Q 2884 3475 3122 3366 
z
" transform="scale(0.015625)"/>
       <path id="DejaVuSans-6b" d="M 581 4863 
L 1159 4863 
L 1159 1991 
L 2875 3500 
L 3609 3500 
L 1753 1863 
L 3688 0 
L 2938 0 
L 1159 1709 
L 1159 0 
L 581 0 
L 581 4863 
z
" transform="scale(0.015625)"/>
       <path id="DejaVuSans-65" d="M 3597 1894 
L 3597 1613 
L 953 1613 
Q 991 1019 1311 708 
Q 1631 397 2203 397 
Q 2534 397 2845 478 
Q 3156 559 3463 722 
L 3463 178 
Q 3153 47 2828 -22 
Q 2503 -91 2169 -91 
Q 1331 -91 842 396 
Q 353 884 353 1716 
Q 353 2575 817 3079 
Q 1281 3584 2069 3584 
Q 2775 3584 3186 3129 
Q 3597 2675 3597 1894 
z
M 3022 2063 
Q 3016 2534 2758 2815 
Q 2500 3097 2075 3097 
Q 1594 3097 1305 2825 
Q 1016 2553 972 2059 
L 3022 2063 
z
" transform="scale(0.015625)"/>
       <path id="DejaVuSans-74" d="M 1172 4494 
L 1172 3500 
L 2356 3500 
L 2356 3053 
L 1172 3053 
L 1172 1153 
Q 1172 725 1289 603 
Q 1406 481 1766 481 
L 2356 481 
L 2356 0 
L 1766 0 
Q 1100 0 847 248 
Q 594 497 594 1153 
L 594 3053 
L 172 3053 
L 172 3500 
L 594 3500 
L 594 4494 
L 1172 4494 
z
" transform="scale(0.015625)"/>
       <path id="DejaVuSans-5f" d="M 3263 -1063 
L 3263 -1509 
L -63 -1509 
L -63 -1063 
L 3263 -1063 
z
" transform="scale(0.015625)"/>
       <path id="DejaVuSans-6d" d="M 3328 2828 
Q 3544 3216 3844 3400 
Q 4144 3584 4550 3584 
Q 5097 3584 5394 3201 
Q 5691 2819 5691 2113 
L 5691 0 
L 5113 0 
L 5113 2094 
Q 5113 2597 4934 2840 
Q 4756 3084 4391 3084 
Q 3944 3084 3684 2787 
Q 3425 2491 3425 1978 
L 3425 0 
L 2847 0 
L 2847 2094 
Q 2847 2600 2669 2842 
Q 2491 3084 2119 3084 
Q 1678 3084 1418 2786 
Q 1159 2488 1159 1978 
L 1159 0 
L 581 0 
L 581 3500 
L 1159 3500 
L 1159 2956 
Q 1356 3278 1631 3431 
Q 1906 3584 2284 3584 
Q 2666 3584 2933 3390 
Q 3200 3197 3328 2828 
z
" transform="scale(0.015625)"/>
       <path id="DejaVuSans-6e" d="M 3513 2113 
L 3513 0 
L 2938 0 
L 2938 2094 
Q 2938 2591 2744 2837 
Q 2550 3084 2163 3084 
Q 1697 3084 1428 2787 
Q 1159 2491 1159 1978 
L 1159 0 
L 581 0 
L 581 3500 
L 1159 3500 
L 1159 2956 
Q 1366 3272 1645 3428 
Q 1925 3584 2291 3584 
Q 2894 3584 3203 3211 
Q 3513 2838 3513 2113 
z
" transform="scale(0.015625)"/>
       <path id="DejaVuSans-64" d="M 2906 2969 
L 2906 4863 
L 3481 4863 
L 3481 0 
L 2906 0 
L 2906 525 
Q 2725 213 2448 61 
Q 2172 -91 1784 -91 
Q 1150 -91 751 415 
Q 353 922 353 1747 
Q 353 2572 751 3078 
Q 1150 3584 1784 3584 
Q 2172 3584 2448 3432 
Q 2725 3281 2906 2969 
z
M 947 1747 
Q 947 1113 1208 752 
Q 1469 391 1925 391 
Q 2381 391 2643 752 
Q 2906 1113 2906 1747 
Q 2906 2381 2643 2742 
Q 2381 3103 1925 3103 
Q 1469 3103 1208 2742 
Q 947 2381 947 1747 
z
" transform="scale(0.015625)"/>
       <path id="DejaVuSans-6c" d="M 603 4863 
L 1178 4863 
L 1178 0 
L 603 0 
L 603 4863 
z
" transform="scale(0.015625)"/>
       <path id="DejaVuSans-69" d="M 603 3500 
L 1178 3500 
L 1178 0 
L 603 0 
L 603 3500 
z
M 603 4863 
L 1178 4863 
L 1178 4134 
L 603 4134 
L 603 4863 
z
" transform="scale(0.015625)"/>
       <path id="DejaVuSans-76" d="M 191 3500 
L 800 3500 
L 1894 563 
L 2988 3500 
L 3597 3500 
L 2284 0 
L 1503 0 
L 191 3500 
z
" transform="scale(0.015625)"/>
       <path id="DejaVuSans-72" d="M 2631 2963 
Q 2534 3019 2420 3045 
Q 2306 3072 2169 3072 
Q 1681 3072 1420 2755 
Q 1159 2438 1159 1844 
L 1159 0 
L 581 0 
L 581 3500 
L 1159 3500 
L 1159 2956 
Q 1341 3275 1631 3429 
Q 1922 3584 2338 3584 
Q 2397 3584 2469 3576 
Q 2541 3569 2628 3553 
L 2631 2963 
z
" transform="scale(0.015625)"/>
       <path id="DejaVuSans-79" d="M 2059 -325 
Q 1816 -950 1584 -1140 
Q 1353 -1331 966 -1331 
L 506 -1331 
L 506 -850 
L 844 -850 
Q 1081 -850 1212 -737 
Q 1344 -625 1503 -206 
L 1606 56 
L 191 3500 
L 800 3500 
L 1894 763 
L 2988 3500 
L 3597 3500 
L 2059 -325 
z
" transform="scale(0.015625)"/>
      </defs>
      <use xlink:href="#DejaVuSans-70"/>
      <use xlink:href="#DejaVuSans-61" x="63.476562"/>
      <use xlink:href="#DejaVuSans-63" x="124.755859"/>
      <use xlink:href="#DejaVuSans-6b" x="179.736328"/>
      <use xlink:href="#DejaVuSans-65" x="234.021484"/>
      <use xlink:href="#DejaVuSans-74" x="295.544922"/>
      <use xlink:href="#DejaVuSans-5f" x="334.753906"/>
      <use xlink:href="#DejaVuSans-6d" x="384.753906"/>
      <use xlink:href="#DejaVuSans-65" x="482.166016"/>
      <use xlink:href="#DejaVuSans-61" x="543.689453"/>
      <use xlink:href="#DejaVuSans-6e" x="604.96875"/>
      <use xlink:href="#DejaVuSans-5f" x="668.347656"/>
      <use xlink:href="#DejaVuSans-64" x="718.347656"/>
      <use xlink:href="#DejaVuSans-65" x="781.824219"/>
      <use xlink:href="#DejaVuSans-6c" x="843.347656"/>
      <use xlink:href="#DejaVuSans-69" x="871.130859"/>
      <use xlink:href="#DejaVuSans-76" x="898.914062"/>
      <use xlink:href="#DejaVuSans-65" x="958.09375"/>
      <use xlink:href="#DejaVuSans-72" x="1019.617188"/>
      <use xlink:href="#DejaVuSans-79" x="1060.730469"/>
      <use xlink:href="#DejaVuSans-5f" x="1119.910156"/>
      <use xlink:href="#DejaVuSans-74" x="1169.910156"/>
      <use xlink:href="#DejaVuSans-69" x="1209.119141"/>
      <use xlink:href="#DejaVuSans-6d" x="1236.902344"/>
      <use xlink:href="#DejaVuSans-65" x="1334.314453"/>
     </g>
    </g>
   </g>
   <g id="LineCollection_1">
    <path d="M 94.269545 393.42 
L 94.269545 156.48098 
" clip-path="url(#p5178688f30)" style="fill: none; stroke: #1f77b4; stroke-width: 1.5"/>
    <path d="M 190.827727 380.09457 
L 190.827727 191.226807 
" clip-path="url(#p5178688f30)" style="fill: none; stroke: #1f77b4; stroke-width: 1.5"/>
    <path d="M 287.385909 314.575004 
L 287.385909 159.906804 
" clip-path="url(#p5178688f30)" style="fill: none; stroke: #1f77b4; stroke-width: 1.5"/>
    <path d="M 383.944091 260.252235 
L 383.944091 149.246988 
" clip-path="url(#p5178688f30)" style="fill: none; stroke: #1f77b4; stroke-width: 1.5"/>
    <path d="M 480.502273 228.14816 
L 480.502273 124.493482 
" clip-path="url(#p5178688f30)" style="fill: none; stroke: #1f77b4; stroke-width: 1.5"/>
    <path d="M 577.060455 238.728346 
L 577.060455 159.490256 
" clip-path="url(#p5178688f30)" style="fill: none; stroke: #1f77b4; stroke-width: 1.5"/>
   </g>
   <g id="LineCollection_2">
    <path d="M 94.269545 341.810594 
L 94.269545 148.718439 
" clip-path="url(#p5178688f30)" style="fill: none; stroke: #ff7f0e; stroke-width: 1.5"/>
    <path d="M 190.827727 365.302195 
L 190.827727 222.17011 
" clip-path="url(#p5178688f30)" style="fill: none; stroke: #ff7f0e; stroke-width: 1.5"/>
    <path d="M 287.385909 344.867533 
L 287.385909 204.076201 
" clip-path="url(#p5178688f30)" style="fill: none; stroke: #ff7f0e; stroke-width: 1.5"/>
    <path d="M 383.944091 320.349501 
L 383.944091 182.223532 
" clip-path="url(#p5178688f30)" style="fill: none; stroke: #ff7f0e; stroke-width: 1.5"/>
    <path d="M 480.502273 333.820855 
L 480.502273 198.162469 
" clip-path="url(#p5178688f30)" style="fill: none; stroke: #ff7f0e; stroke-width: 1.5"/>
    <path d="M 577.060455 354.330432 
L 577.060455 218.227774 
" clip-path="url(#p5178688f30)" style="fill: none; stroke: #ff7f0e; stroke-width: 1.5"/>
   </g>
   <g id="LineCollection_3">
    <path d="M 94.269545 385.556394 
L 94.269545 84.968434 
" clip-path="url(#p5178688f30)" style="fill: none; stroke: #bcbd22; stroke-width: 1.5"/>
    <path d="M 190.827727 285.827997 
L 190.827727 140.898234 
" clip-path="url(#p5178688f30)" style="fill: none; stroke: #bcbd22; stroke-width: 1.5"/>
    <path d="M 287.385909 245.418923 
L 287.385909 131.413691 
" clip-path="url(#p5178688f30)" style="fill: none; stroke: #bcbd22; stroke-width: 1.5"/>
    <path d="M 383.944091 269.664128 
L 383.944091 137.407798 
" clip-path="url(#p5178688f30)" style="fill: none; stroke: #bcbd22; stroke-width: 1.5"/>
    <path d="M 480.502273 302.147905 
L 480.502273 203.184236 
" clip-path="url(#p5178688f30)" style="fill: none; stroke: #bcbd22; stroke-width: 1.5"/>
    <path d="M 577.060455 370.226114 
L 577.060455 274.276685 
" clip-path="url(#p5178688f30)" style="fill: none; stroke: #bcbd22; stroke-width: 1.5"/>
   </g>
   <g id="LineCollection_4">
    <path d="M 94.269545 291.811492 
L 94.269545 71.224274 
" clip-path="url(#p5178688f30)" style="fill: none; stroke: #2ca02c; stroke-width: 1.5"/>
    <path d="M 190.827727 211.074289 
L 190.827727 91.153841 
" clip-path="url(#p5178688f30)" style="fill: none; stroke: #2ca02c; stroke-width: 1.5"/>
    <path d="M 287.385909 215.965357 
L 287.385909 73.779563 
" clip-path="url(#p5178688f30)" style="fill: none; stroke: #2ca02c; stroke-width: 1.5"/>
    <path d="M 383.944091 206.724881 
L 383.944091 124.482297 
" clip-path="url(#p5178688f30)" style="fill: none; stroke: #2ca02c; stroke-width: 1.5"/>
    <path d="M 480.502273 223.937926 
L 480.502273 156.234648 
" clip-path="url(#p5178688f30)" style="fill: none; stroke: #2ca02c; stroke-width: 1.5"/>
    <path d="M 577.060455 256.624695 
L 577.060455 197.972111 
" clip-path="url(#p5178688f30)" style="fill: none; stroke: #2ca02c; stroke-width: 1.5"/>
   </g>
   <g id="LineCollection_5">
    <path d="M 94.269545 352.458127 
L 94.269545 29.02 
" clip-path="url(#p5178688f30)" style="fill: none; stroke: #17becf; stroke-width: 1.5"/>
    <path d="M 190.827727 193.35514 
L 190.827727 91.14927 
" clip-path="url(#p5178688f30)" style="fill: none; stroke: #17becf; stroke-width: 1.5"/>
    <path d="M 287.385909 208.333708 
L 287.385909 87.310139 
" clip-path="url(#p5178688f30)" style="fill: none; stroke: #17becf; stroke-width: 1.5"/>
    <path d="M 383.944091 193.733618 
L 383.944091 116.329703 
" clip-path="url(#p5178688f30)" style="fill: none; stroke: #17becf; stroke-width: 1.5"/>
    <path d="M 480.502273 206.620832 
L 480.502273 143.627254 
" clip-path="url(#p5178688f30)" style="fill: none; stroke: #17becf; stroke-width: 1.5"/>
    <path d="M 577.060455 244.202391 
L 577.060455 174.42304 
" clip-path="url(#p5178688f30)" style="fill: none; stroke: #17becf; stroke-width: 1.5"/>
   </g>
   <g id="LineCollection_6">
    <path d="M 94.269545 317.391207 
L 94.269545 43.544136 
" clip-path="url(#p5178688f30)" style="fill: none; stroke: #d62728; stroke-width: 1.5"/>
    <path d="M 190.827727 203.427567 
L 190.827727 98.692242 
" clip-path="url(#p5178688f30)" style="fill: none; stroke: #d62728; stroke-width: 1.5"/>
    <path d="M 287.385909 208.666842 
L 287.385909 80.743386 
" clip-path="url(#p5178688f30)" style="fill: none; stroke: #d62728; stroke-width: 1.5"/>
    <path d="M 383.944091 190.694583 
L 383.944091 115.290306 
" clip-path="url(#p5178688f30)" style="fill: none; stroke: #d62728; stroke-width: 1.5"/>
    <path d="M 480.502273 204.427226 
L 480.502273 138.059191 
" clip-path="url(#p5178688f30)" style="fill: none; stroke: #d62728; stroke-width: 1.5"/>
    <path d="M 577.060455 237.206716 
L 577.060455 175.25556 
" clip-path="url(#p5178688f30)" style="fill: none; stroke: #d62728; stroke-width: 1.5"/>
   </g>
   <g id="line2d_27">
    <path d="M 94.269545 274.95049 
L 190.827727 285.660688 
L 287.385909 237.240904 
L 383.944091 204.749612 
L 480.502273 176.320821 
L 577.060455 199.109301 
" clip-path="url(#p5178688f30)" style="fill: none; stroke: #1f77b4; stroke-width: 1.5; stroke-linecap: square"/>
    <defs>
     <path id="m07c337b089" d="M -2 4 
L 0 2 
L 2 4 
L 4 2 
L 2 0 
L 4 -2 
L 2 -4 
L 0 -2 
L -2 -4 
L -4 -2 
L -2 0 
L -4 2 
z
" style="stroke: #1f77b4; stroke-linejoin: miter"/>
    </defs>
    <g clip-path="url(#p5178688f30)">
     <use xlink:href="#m07c337b089" x="94.269545" y="274.95049" style="fill: #1f77b4; stroke: #1f77b4; stroke-linejoin: miter"/>
     <use xlink:href="#m07c337b089" x="190.827727" y="285.660688" style="fill: #1f77b4; stroke: #1f77b4; stroke-linejoin: miter"/>
     <use xlink:href="#m07c337b089" x="287.385909" y="237.240904" style="fill: #1f77b4; stroke: #1f77b4; stroke-linejoin: miter"/>
     <use xlink:href="#m07c337b089" x="383.944091" y="204.749612" style="fill: #1f77b4; stroke: #1f77b4; stroke-linejoin: miter"/>
     <use xlink:href="#m07c337b089" x="480.502273" y="176.320821" style="fill: #1f77b4; stroke: #1f77b4; stroke-linejoin: miter"/>
     <use xlink:href="#m07c337b089" x="577.060455" y="199.109301" style="fill: #1f77b4; stroke: #1f77b4; stroke-linejoin: miter"/>
    </g>
   </g>
   <g id="line2d_28">
    <path d="M 94.269545 245.264517 
L 190.827727 293.736152 
L 287.385909 274.471867 
L 383.944091 251.286517 
L 480.502273 265.991662 
L 577.060455 286.279103 
" clip-path="url(#p5178688f30)" style="fill: none; stroke: #ff7f0e; stroke-width: 1.5; stroke-linecap: square"/>
    <defs>
     <path id="m88f9050112" d="M 0 -4 
L -3.804226 -1.236068 
L -2.351141 3.236068 
L 2.351141 3.236068 
L 3.804226 -1.236068 
z
" style="stroke: #ff7f0e; stroke-linejoin: miter"/>
    </defs>
    <g clip-path="url(#p5178688f30)">
     <use xlink:href="#m88f9050112" x="94.269545" y="245.264517" style="fill: #ff7f0e; stroke: #ff7f0e; stroke-linejoin: miter"/>
     <use xlink:href="#m88f9050112" x="190.827727" y="293.736152" style="fill: #ff7f0e; stroke: #ff7f0e; stroke-linejoin: miter"/>
     <use xlink:href="#m88f9050112" x="287.385909" y="274.471867" style="fill: #ff7f0e; stroke: #ff7f0e; stroke-linejoin: miter"/>
     <use xlink:href="#m88f9050112" x="383.944091" y="251.286517" style="fill: #ff7f0e; stroke: #ff7f0e; stroke-linejoin: miter"/>
     <use xlink:href="#m88f9050112" x="480.502273" y="265.991662" style="fill: #ff7f0e; stroke: #ff7f0e; stroke-linejoin: miter"/>
     <use xlink:href="#m88f9050112" x="577.060455" y="286.279103" style="fill: #ff7f0e; stroke: #ff7f0e; stroke-linejoin: miter"/>
    </g>
   </g>
   <g id="line2d_29">
    <path d="M 94.269545 235.262414 
L 190.827727 213.363116 
L 287.385909 188.416307 
L 383.944091 203.535963 
L 480.502273 252.66607 
L 577.060455 322.251399 
" clip-path="url(#p5178688f30)" style="fill: none; stroke: #bcbd22; stroke-width: 1.5; stroke-linecap: square"/>
    <defs>
     <path id="me67a0eb81a" d="M -4 4 
L 4 4 
L 4 -4 
L -4 -4 
z
" style="stroke: #bcbd22; stroke-linejoin: miter"/>
    </defs>
    <g clip-path="url(#p5178688f30)">
     <use xlink:href="#me67a0eb81a" x="94.269545" y="235.262414" style="fill: #bcbd22; stroke: #bcbd22; stroke-linejoin: miter"/>
     <use xlink:href="#me67a0eb81a" x="190.827727" y="213.363116" style="fill: #bcbd22; stroke: #bcbd22; stroke-linejoin: miter"/>
     <use xlink:href="#me67a0eb81a" x="287.385909" y="188.416307" style="fill: #bcbd22; stroke: #bcbd22; stroke-linejoin: miter"/>
     <use xlink:href="#me67a0eb81a" x="383.944091" y="203.535963" style="fill: #bcbd22; stroke: #bcbd22; stroke-linejoin: miter"/>
     <use xlink:href="#me67a0eb81a" x="480.502273" y="252.66607" style="fill: #bcbd22; stroke: #bcbd22; stroke-linejoin: miter"/>
     <use xlink:href="#me67a0eb81a" x="577.060455" y="322.251399" style="fill: #bcbd22; stroke: #bcbd22; stroke-linejoin: miter"/>
    </g>
   </g>
   <g id="line2d_30">
    <path d="M 94.269545 181.517883 
L 190.827727 151.114065 
L 287.385909 144.87246 
L 383.944091 165.603589 
L 480.502273 190.086287 
L 577.060455 227.298403 
" clip-path="url(#p5178688f30)" style="fill: none; stroke: #2ca02c; stroke-width: 1.5; stroke-linecap: square"/>
    <defs>
     <path id="m277ef64749" d="M 0 -4 
L -0.898056 -1.236068 
L -3.804226 -1.236068 
L -1.453085 0.472136 
L -2.351141 3.236068 
L -0 1.527864 
L 2.351141 3.236068 
L 1.453085 0.472136 
L 3.804226 -1.236068 
L 0.898056 -1.236068 
z
" style="stroke: #2ca02c; stroke-linejoin: bevel"/>
    </defs>
    <g clip-path="url(#p5178688f30)">
     <use xlink:href="#m277ef64749" x="94.269545" y="181.517883" style="fill: #2ca02c; stroke: #2ca02c; stroke-linejoin: bevel"/>
     <use xlink:href="#m277ef64749" x="190.827727" y="151.114065" style="fill: #2ca02c; stroke: #2ca02c; stroke-linejoin: bevel"/>
     <use xlink:href="#m277ef64749" x="287.385909" y="144.87246" style="fill: #2ca02c; stroke: #2ca02c; stroke-linejoin: bevel"/>
     <use xlink:href="#m277ef64749" x="383.944091" y="165.603589" style="fill: #2ca02c; stroke: #2ca02c; stroke-linejoin: bevel"/>
     <use xlink:href="#m277ef64749" x="480.502273" y="190.086287" style="fill: #2ca02c; stroke: #2ca02c; stroke-linejoin: bevel"/>
     <use xlink:href="#m277ef64749" x="577.060455" y="227.298403" style="fill: #2ca02c; stroke: #2ca02c; stroke-linejoin: bevel"/>
    </g>
   </g>
   <g id="line2d_31">
    <path d="M 94.269545 190.739063 
L 190.827727 142.252205 
L 287.385909 147.821923 
L 383.944091 155.031661 
L 480.502273 175.124043 
L 577.060455 209.312716 
" clip-path="url(#p5178688f30)" style="fill: none; stroke: #17becf; stroke-width: 1.5; stroke-linecap: square"/>
    <defs>
     <path id="m9adc25a2e3" d="M 0 -4 
L -4 4 
L 4 4 
z
" style="stroke: #17becf; stroke-linejoin: miter"/>
    </defs>
    <g clip-path="url(#p5178688f30)">
     <use xlink:href="#m9adc25a2e3" x="94.269545" y="190.739063" style="fill: #17becf; stroke: #17becf; stroke-linejoin: miter"/>
     <use xlink:href="#m9adc25a2e3" x="190.827727" y="142.252205" style="fill: #17becf; stroke: #17becf; stroke-linejoin: miter"/>
     <use xlink:href="#m9adc25a2e3" x="287.385909" y="147.821923" style="fill: #17becf; stroke: #17becf; stroke-linejoin: miter"/>
     <use xlink:href="#m9adc25a2e3" x="383.944091" y="155.031661" style="fill: #17becf; stroke: #17becf; stroke-linejoin: miter"/>
     <use xlink:href="#m9adc25a2e3" x="480.502273" y="175.124043" style="fill: #17becf; stroke: #17becf; stroke-linejoin: miter"/>
     <use xlink:href="#m9adc25a2e3" x="577.060455" y="209.312716" style="fill: #17becf; stroke: #17becf; stroke-linejoin: miter"/>
    </g>
   </g>
   <g id="line2d_32">
    <path d="M 94.269545 180.467672 
L 190.827727 151.059904 
L 287.385909 144.705114 
L 383.944091 152.992444 
L 480.502273 171.243209 
L 577.060455 206.231138 
" clip-path="url(#p5178688f30)" style="fill: none; stroke: #d62728; stroke-width: 1.5; stroke-linecap: square"/>
    <defs>
     <path id="m701b37e3c3" d="M -0 5.656854 
L 5.656854 0 
L 0 -5.656854 
L -5.656854 -0 
z
" style="stroke: #d62728; stroke-linejoin: miter"/>
    </defs>
    <g clip-path="url(#p5178688f30)">
     <use xlink:href="#m701b37e3c3" x="94.269545" y="180.467672" style="fill: #d62728; stroke: #d62728; stroke-linejoin: miter"/>
     <use xlink:href="#m701b37e3c3" x="190.827727" y="151.059904" style="fill: #d62728; stroke: #d62728; stroke-linejoin: miter"/>
     <use xlink:href="#m701b37e3c3" x="287.385909" y="144.705114" style="fill: #d62728; stroke: #d62728; stroke-linejoin: miter"/>
     <use xlink:href="#m701b37e3c3" x="383.944091" y="152.992444" style="fill: #d62728; stroke: #d62728; stroke-linejoin: miter"/>
     <use xlink:href="#m701b37e3c3" x="480.502273" y="171.243209" style="fill: #d62728; stroke: #d62728; stroke-linejoin: miter"/>
     <use xlink:href="#m701b37e3c3" x="577.060455" y="206.231138" style="fill: #d62728; stroke: #d62728; stroke-linejoin: miter"/>
    </g>
   </g>
   <g id="patch_3">
    <path d="M 70.13 411.64 
L 70.13 10.8 
" style="fill: none; stroke: #000000; stroke-width: 0.8; stroke-linejoin: miter; stroke-linecap: square"/>
   </g>
   <g id="patch_4">
    <path d="M 601.2 411.64 
L 601.2 10.8 
" style="fill: none; stroke: #000000; stroke-width: 0.8; stroke-linejoin: miter; stroke-linecap: square"/>
   </g>
   <g id="patch_5">
    <path d="M 70.13 411.64 
L 601.2 411.64 
" style="fill: none; stroke: #000000; stroke-width: 0.8; stroke-linejoin: miter; stroke-linecap: square"/>
   </g>
   <g id="patch_6">
    <path d="M 70.13 10.8 
L 601.2 10.8 
" style="fill: none; stroke: #000000; stroke-width: 0.8; stroke-linejoin: miter; stroke-linecap: square"/>
   </g>
   <g id="legend_1">
    <g id="patch_7">
     <path d="M 278.2025 401.64 
L 393.1275 401.64 
Q 397.1275 401.64 397.1275 397.64 
L 397.1275 222.94625 
Q 397.1275 218.94625 393.1275 218.94625 
L 278.2025 218.94625 
Q 274.2025 218.94625 274.2025 222.94625 
L 274.2025 397.64 
Q 274.2025 401.64 278.2025 401.64 
z
" style="fill: #ffffff; opacity: 0.8; stroke: #cccccc; stroke-linejoin: miter"/>
    </g>
    <g id="LineCollection_7">
     <path d="M 302.2025 245.143125 
L 302.2025 225.143125 
" style="fill: none; stroke: #1f77b4; stroke-width: 1.5"/>
    </g>
    <g id="line2d_33">
     <path d="M 282.2025 235.143125 
L 322.2025 235.143125 
" style="fill: none; stroke: #1f77b4; stroke-width: 1.5; stroke-linecap: square"/>
    </g>
    <g id="line2d_34">
     <g>
      <use xlink:href="#m07c337b089" x="302.2025" y="235.143125" style="fill: #1f77b4; stroke: #1f77b4; stroke-linejoin: miter"/>
     </g>
    </g>
    <g id="text_16">
     <!-- QL -->
     <g transform="translate(324.2025 242.143125) scale(0.2 -0.2)">
      <defs>
       <path id="DejaVuSans-51" d="M 2522 4238 
Q 1834 4238 1429 3725 
Q 1025 3213 1025 2328 
Q 1025 1447 1429 934 
Q 1834 422 2522 422 
Q 3209 422 3611 934 
Q 4013 1447 4013 2328 
Q 4013 3213 3611 3725 
Q 3209 4238 2522 4238 
z
M 3406 84 
L 4238 -825 
L 3475 -825 
L 2784 -78 
Q 2681 -84 2626 -87 
Q 2572 -91 2522 -91 
Q 1538 -91 948 567 
Q 359 1225 359 2328 
Q 359 3434 948 4092 
Q 1538 4750 2522 4750 
Q 3503 4750 4090 4092 
Q 4678 3434 4678 2328 
Q 4678 1516 4351 937 
Q 4025 359 3406 84 
z
" transform="scale(0.015625)"/>
       <path id="DejaVuSans-4c" d="M 628 4666 
L 1259 4666 
L 1259 531 
L 3531 531 
L 3531 0 
L 628 0 
L 628 4666 
z
" transform="scale(0.015625)"/>
      </defs>
      <use xlink:href="#DejaVuSans-51"/>
      <use xlink:href="#DejaVuSans-4c" x="78.710938"/>
     </g>
    </g>
    <g id="LineCollection_8">
     <path d="M 302.2025 274.499375 
L 302.2025 254.499375 
" style="fill: none; stroke: #ff7f0e; stroke-width: 1.5"/>
    </g>
    <g id="line2d_35">
     <path d="M 282.2025 264.499375 
L 322.2025 264.499375 
" style="fill: none; stroke: #ff7f0e; stroke-width: 1.5; stroke-linecap: square"/>
    </g>
    <g id="line2d_36">
     <g>
      <use xlink:href="#m88f9050112" x="302.2025" y="264.499375" style="fill: #ff7f0e; stroke: #ff7f0e; stroke-linejoin: miter"/>
     </g>
    </g>
    <g id="text_17">
     <!-- RND -->
     <g transform="translate(324.2025 271.499375) scale(0.2 -0.2)">
      <defs>
       <path id="DejaVuSans-52" d="M 2841 2188 
Q 3044 2119 3236 1894 
Q 3428 1669 3622 1275 
L 4263 0 
L 3584 0 
L 2988 1197 
Q 2756 1666 2539 1819 
Q 2322 1972 1947 1972 
L 1259 1972 
L 1259 0 
L 628 0 
L 628 4666 
L 2053 4666 
Q 2853 4666 3247 4331 
Q 3641 3997 3641 3322 
Q 3641 2881 3436 2590 
Q 3231 2300 2841 2188 
z
M 1259 4147 
L 1259 2491 
L 2053 2491 
Q 2509 2491 2742 2702 
Q 2975 2913 2975 3322 
Q 2975 3731 2742 3939 
Q 2509 4147 2053 4147 
L 1259 4147 
z
" transform="scale(0.015625)"/>
       <path id="DejaVuSans-4e" d="M 628 4666 
L 1478 4666 
L 3547 763 
L 3547 4666 
L 4159 4666 
L 4159 0 
L 3309 0 
L 1241 3903 
L 1241 0 
L 628 0 
L 628 4666 
z
" transform="scale(0.015625)"/>
       <path id="DejaVuSans-44" d="M 1259 4147 
L 1259 519 
L 2022 519 
Q 2988 519 3436 956 
Q 3884 1394 3884 2338 
Q 3884 3275 3436 3711 
Q 2988 4147 2022 4147 
L 1259 4147 
z
M 628 4666 
L 1925 4666 
Q 3281 4666 3915 4102 
Q 4550 3538 4550 2338 
Q 4550 1131 3912 565 
Q 3275 0 1925 0 
L 628 0 
L 628 4666 
z
" transform="scale(0.015625)"/>
      </defs>
      <use xlink:href="#DejaVuSans-52"/>
      <use xlink:href="#DejaVuSans-4e" x="69.482422"/>
      <use xlink:href="#DejaVuSans-44" x="144.287109"/>
     </g>
    </g>
    <g id="LineCollection_9">
     <path d="M 302.2025 303.855625 
L 302.2025 283.855625 
" style="fill: none; stroke: #bcbd22; stroke-width: 1.5"/>
    </g>
    <g id="line2d_37">
     <path d="M 282.2025 293.855625 
L 322.2025 293.855625 
" style="fill: none; stroke: #bcbd22; stroke-width: 1.5; stroke-linecap: square"/>
    </g>
    <g id="line2d_38">
     <g>
      <use xlink:href="#me67a0eb81a" x="302.2025" y="293.855625" style="fill: #bcbd22; stroke: #bcbd22; stroke-linejoin: miter"/>
     </g>
    </g>
    <g id="text_18">
     <!-- GEO -->
     <g transform="translate(324.2025 300.855625) scale(0.2 -0.2)">
      <defs>
       <path id="DejaVuSans-47" d="M 3809 666 
L 3809 1919 
L 2778 1919 
L 2778 2438 
L 4434 2438 
L 4434 434 
Q 4069 175 3628 42 
Q 3188 -91 2688 -91 
Q 1594 -91 976 548 
Q 359 1188 359 2328 
Q 359 3472 976 4111 
Q 1594 4750 2688 4750 
Q 3144 4750 3555 4637 
Q 3966 4525 4313 4306 
L 4313 3634 
Q 3963 3931 3569 4081 
Q 3175 4231 2741 4231 
Q 1884 4231 1454 3753 
Q 1025 3275 1025 2328 
Q 1025 1384 1454 906 
Q 1884 428 2741 428 
Q 3075 428 3337 486 
Q 3600 544 3809 666 
z
" transform="scale(0.015625)"/>
       <path id="DejaVuSans-45" d="M 628 4666 
L 3578 4666 
L 3578 4134 
L 1259 4134 
L 1259 2753 
L 3481 2753 
L 3481 2222 
L 1259 2222 
L 1259 531 
L 3634 531 
L 3634 0 
L 628 0 
L 628 4666 
z
" transform="scale(0.015625)"/>
       <path id="DejaVuSans-4f" d="M 2522 4238 
Q 1834 4238 1429 3725 
Q 1025 3213 1025 2328 
Q 1025 1447 1429 934 
Q 1834 422 2522 422 
Q 3209 422 3611 934 
Q 4013 1447 4013 2328 
Q 4013 3213 3611 3725 
Q 3209 4238 2522 4238 
z
M 2522 4750 
Q 3503 4750 4090 4092 
Q 4678 3434 4678 2328 
Q 4678 1225 4090 567 
Q 3503 -91 2522 -91 
Q 1538 -91 948 565 
Q 359 1222 359 2328 
Q 359 3434 948 4092 
Q 1538 4750 2522 4750 
z
" transform="scale(0.015625)"/>
      </defs>
      <use xlink:href="#DejaVuSans-47"/>
      <use xlink:href="#DejaVuSans-45" x="77.490234"/>
      <use xlink:href="#DejaVuSans-4f" x="140.673828"/>
     </g>
    </g>
    <g id="LineCollection_10">
     <path d="M 302.2025 333.211875 
L 302.2025 313.211875 
" style="fill: none; stroke: #2ca02c; stroke-width: 1.5"/>
    </g>
    <g id="line2d_39">
     <path d="M 282.2025 323.211875 
L 322.2025 323.211875 
" style="fill: none; stroke: #2ca02c; stroke-width: 1.5; stroke-linecap: square"/>
    </g>
    <g id="line2d_40">
     <g>
      <use xlink:href="#m277ef64749" x="302.2025" y="323.211875" style="fill: #2ca02c; stroke: #2ca02c; stroke-linejoin: bevel"/>
     </g>
    </g>
    <g id="text_19">
     <!-- QL_DE -->
     <g transform="translate(324.2025 330.211875) scale(0.2 -0.2)">
      <use xlink:href="#DejaVuSans-51"/>
      <use xlink:href="#DejaVuSans-4c" x="78.710938"/>
      <use xlink:href="#DejaVuSans-5f" x="134.423828"/>
      <use xlink:href="#DejaVuSans-44" x="184.423828"/>
      <use xlink:href="#DejaVuSans-45" x="261.425781"/>
     </g>
    </g>
    <g id="LineCollection_11">
     <path d="M 302.2025 363.124375 
L 302.2025 343.124375 
" style="fill: none; stroke: #17becf; stroke-width: 1.5"/>
    </g>
    <g id="line2d_41">
     <path d="M 282.2025 353.124375 
L 322.2025 353.124375 
" style="fill: none; stroke: #17becf; stroke-width: 1.5; stroke-linecap: square"/>
    </g>
    <g id="line2d_42">
     <g>
      <use xlink:href="#m9adc25a2e3" x="302.2025" y="353.124375" style="fill: #17becf; stroke: #17becf; stroke-linejoin: miter"/>
     </g>
    </g>
    <g id="text_20">
     <!-- QL2 -->
     <g transform="translate(324.2025 360.124375) scale(0.2 -0.2)">
      <use xlink:href="#DejaVuSans-51"/>
      <use xlink:href="#DejaVuSans-4c" x="78.710938"/>
      <use xlink:href="#DejaVuSans-32" x="134.423828"/>
     </g>
    </g>
    <g id="LineCollection_12">
     <path d="M 302.2025 392.480625 
L 302.2025 372.480625 
" style="fill: none; stroke: #d62728; stroke-width: 1.5"/>
    </g>
    <g id="line2d_43">
     <path d="M 282.2025 382.480625 
L 322.2025 382.480625 
" style="fill: none; stroke: #d62728; stroke-width: 1.5; stroke-linecap: square"/>
    </g>
    <g id="line2d_44">
     <g>
      <use xlink:href="#m701b37e3c3" x="302.2025" y="382.480625" style="fill: #d62728; stroke: #d62728; stroke-linejoin: miter"/>
     </g>
    </g>
    <g id="text_21">
     <!-- QL3 -->
     <g transform="translate(324.2025 389.480625) scale(0.2 -0.2)">
      <use xlink:href="#DejaVuSans-51"/>
      <use xlink:href="#DejaVuSans-4c" x="78.710938"/>
      <use xlink:href="#DejaVuSans-33" x="134.423828"/>
     </g>
    </g>
   </g>
  </g>
 </g>
 <defs>
  <clipPath id="p5178688f30">
   <rect x="70.13" y="10.8" width="531.07" height="400.84"/>
  </clipPath>
 </defs>
</svg>
